<svg width="21" height="22" viewBox="0 0 21 22" fill="none" xmlns="http://www.w3.org/2000/svg">
<g clip-path="url(#clip0_25_231)">
<path d="M19.1054 1.58986C18.8114 2.29551 18.4349 2.96386 17.9837 3.58092C16.0074 1.60577 13.3277 0.496085 10.5336 0.495728C4.75519 0.495728 1.41456e-09 5.25485 1.41456e-09 11.0397C-2.33872e-05 12.4682 0.289987 13.8818 0.852457 15.1949C1.41493 16.508 2.23815 17.6932 3.27223 18.6788L3.66073 19.0233C5.55941 20.6241 7.96255 21.5028 10.446 21.5043C15.94 21.5043 20.5583 17.1993 20.9495 11.7125C21.2367 9.02665 20.4489 5.62957 19.1054 1.58986ZM4.7688 18.7388C4.68423 18.843 4.57747 18.9271 4.45631 18.9848C4.33515 19.0425 4.20263 19.0725 4.06842 19.0725C3.57328 19.0725 3.16821 18.665 3.16821 18.1699C3.16821 17.6747 3.57591 17.2673 4.06842 17.2673C4.2735 17.2673 4.47612 17.3384 4.63477 17.4698C5.02048 17.7815 5.08069 18.3531 4.7688 18.7388ZM19.0618 15.5826C16.4625 19.0479 10.9111 17.88 7.35164 18.0468C7.35164 18.0468 6.71967 18.0852 6.08491 18.189C6.08491 18.189 6.3228 18.0878 6.63206 17.9702C9.13008 17.1005 10.312 16.9309 11.8304 16.1514C14.6895 14.6963 17.5158 11.5127 18.1041 8.20043C17.0152 11.3869 13.7155 14.1247 10.7087 15.2379C8.64855 15.9983 4.92745 16.7368 4.92745 16.7368L4.77701 16.6574C2.24355 15.4239 2.16677 9.93457 6.77151 8.1622C8.78801 7.38537 10.7169 7.8121 12.8948 7.29235C15.2204 6.73995 17.9099 4.99481 19.0042 2.71927C20.2299 6.35981 21.7048 12.0597 19.0618 15.5826Z" fill="#77BC1F"/>
</g>
<defs>
<clipPath id="clip0_25_231">
<rect width="21" height="21" fill="white" transform="translate(0 0.5)"/>
</clipPath>
</defs>
</svg>
