<svg width="21" height="22" viewBox="0 0 21 22" fill="none" xmlns="http://www.w3.org/2000/svg">
<g clip-path="url(#clip0_25_289)">
<path d="M4.47144 13.743C4.47144 14.9456 3.49067 15.9278 2.28793 15.9278C1.08519 15.9278 0.103271 14.9456 0.103271 13.743C0.103271 12.5404 1.08551 11.5582 2.28809 11.5582H4.4716L4.47144 13.743ZM5.57213 13.743C5.57213 12.5404 6.55437 11.5582 7.75695 11.5582C8.95953 11.5582 9.94177 12.5402 9.94177 13.743V19.212C9.94177 20.4146 8.95969 21.3968 7.75695 21.3968C6.55437 21.3968 5.57213 20.4146 5.57213 19.212V13.743Z" fill="#DE1C59"/>
<path d="M7.75695 4.9715C6.55437 4.9715 5.57213 3.99073 5.57213 2.78799C5.57213 1.58525 6.55437 0.603333 7.75695 0.603333C8.95953 0.603333 9.94177 1.58557 9.94177 2.78815V4.97166L7.75695 4.9715ZM7.75695 6.07219C8.95953 6.07219 9.94177 7.05443 9.94177 8.25701C9.94177 9.45959 8.95969 10.4418 7.75695 10.4418H2.28793C1.08535 10.4418 0.103271 9.45975 0.103271 8.25701C0.103271 7.05443 1.08551 6.07219 2.28809 6.07219H7.75695Z" fill="#35C5F0"/>
<path d="M16.5284 8.25701C16.5284 7.05443 17.5092 6.07219 18.7119 6.07219C19.9147 6.07219 20.8968 7.05443 20.8968 8.25701C20.8968 9.45959 19.9145 10.4418 18.7119 10.4418H16.5284V8.25701ZM15.4277 8.25701C15.4277 9.45959 14.4455 10.4418 13.2429 10.4418C12.0403 10.4418 11.0581 9.45975 11.0581 8.25701V2.78799C11.0581 1.58541 12.0402 0.603333 13.2429 0.603333C14.4455 0.603333 15.4277 1.58557 15.4277 2.78815V8.25701Z" fill="#2EB57D"/>
<path d="M13.2429 17.0285C14.4455 17.0285 15.4277 18.0093 15.4277 19.212C15.4277 20.4148 14.4455 21.3968 13.2429 21.3968C12.0403 21.3968 11.0581 20.4146 11.0581 19.212V17.0285H13.2429ZM13.2429 15.9278C12.0403 15.9278 11.0581 14.9456 11.0581 13.743C11.0581 12.5404 12.0402 11.5582 13.2429 11.5582H18.7119C19.9145 11.5582 20.8968 12.5402 20.8968 13.743C20.8968 14.9456 19.9145 15.9278 18.7119 15.9278H13.2429Z" fill="#EBB02E"/>
</g>
<defs>
<clipPath id="clip0_25_289">
<rect width="21" height="21" fill="white" transform="translate(0 0.5)"/>
</clipPath>
</defs>
</svg>
