<svg width="21" height="22" viewBox="0 0 21 22" fill="none" xmlns="http://www.w3.org/2000/svg">
<path d="M14.7102 4.57137L14.6837 4.52986L14.6835 4.53002L14.6825 4.53068L14.6782 4.53331L14.6613 4.54381C14.5585 4.60702 14.4545 4.66833 14.3495 4.72772C14.0723 4.88426 13.7887 5.02903 13.4993 5.16166C12.8109 5.4765 11.9402 5.78363 11.195 5.76722C10.8187 5.75885 10.506 5.72752 10.2112 5.69651L10.1629 5.69142C9.88631 5.66222 9.6225 5.63449 9.33588 5.62842C8.7277 5.61563 8.01977 5.7011 6.85509 6.07254C5.68073 6.44693 4.9285 7.20867 4.3871 7.93432C4.17693 8.21602 3.99761 8.49328 3.83831 8.74003C3.79281 8.81069 3.74873 8.87856 3.70607 8.94363C3.51248 9.23845 3.35006 9.46371 3.19043 9.57954C2.85344 9.82383 2.157 10.3436 1.54504 10.8018C1.27835 11.0016 1.01181 11.2015 0.745402 11.4016L0.497012 11.5883L0.428926 11.6397L0.411207 11.6531L0.406613 11.6566L0.405465 11.6574L0.405137 11.6576L0.381348 11.6756L0.386105 11.705L0.390699 11.7332L0.399887 11.7895L0.454191 11.7722L2.17029 11.2257C2.10548 11.295 2.01754 11.3914 1.90598 11.5197C1.64118 11.8246 1.24333 12.3089 0.704551 13.0329L0.692902 13.0221L0.583965 12.9218L0.611363 13.0672L0.613332 13.0777L0.615137 13.0874L0.620551 13.0956L0.620715 13.0959L0.621207 13.0967L0.623176 13.0998L0.631051 13.1116C0.677243 13.1786 0.7255 13.2442 0.775754 13.3082C0.899906 13.4672 1.0361 13.6165 1.18312 13.7546C1.35145 13.9111 1.54931 14.0617 1.76275 14.157C1.97653 14.2525 2.20851 14.2939 2.44164 14.2268C2.52696 14.2018 2.62129 14.1628 2.72219 14.1124C3.07493 14.3062 3.5325 14.495 4.03797 14.5478L4.16118 14.5608L4.08046 14.4668L4.0803 14.4666L4.07964 14.4658L4.07669 14.4625L4.06554 14.4492C4.0005 14.3714 3.93678 14.2924 3.8744 14.2123C3.73527 14.0339 3.6039 13.8495 3.48065 13.6598L3.61732 13.571L4.32082 13.8296L4.39596 13.8571L4.38661 13.7776L4.31507 13.1679L4.96033 13.405L5.03761 13.4334L5.02596 13.3518L4.94245 12.7665C5.02186 12.7253 5.10088 12.6866 5.17952 12.6503L5.20101 12.6406L5.20692 12.6181L5.94487 9.82678L8.86764 7.83309L8.68307 8.29739C8.37546 9.05372 7.93364 9.52015 7.56975 9.79725C7.4256 9.90758 7.27103 10.0036 7.10824 10.0839C7.05165 10.1114 6.99366 10.136 6.9345 10.1575L6.92531 10.1606L6.92449 10.161L6.92318 10.1615L6.92268 10.1616L6.92121 10.1621L6.91973 10.1626L6.43164 10.3477L6.41967 10.3519L6.41147 10.3616L6.35486 10.4281C6.20294 10.6059 6.08531 10.7436 5.9936 10.9841C5.89172 11.2512 5.82199 11.6436 5.75981 12.3637L5.7539 12.4324L5.82084 12.4155C6.10844 12.3433 6.37898 12.3271 6.6213 12.3924C7.26 12.5645 7.69181 13.036 7.92068 13.5205C8.03503 13.7626 8.09786 14.0063 8.11082 14.2146C8.12395 14.425 8.08589 14.5908 8.00878 14.6861C7.92527 14.7893 7.72446 14.9685 7.46442 15.1841H6.90119L6.90037 15.2325L6.89348 15.6405L6.89315 15.6408L6.87051 15.6584H6.29744L6.29662 15.7068L6.29039 16.1041L6.22214 16.1555L6.18079 16.1867C5.94225 16.187 5.66974 16.0853 5.45121 15.9786C5.33006 15.9194 5.2125 15.853 5.09913 15.78L5.07829 15.7662L5.07304 15.7626L5.07206 15.7619L5.07189 15.7617L5.07157 15.7616L4.99446 15.7086V15.8023C4.99446 16.0147 5.08207 16.2789 5.16639 16.4854C5.21371 16.6001 5.26565 16.7129 5.32209 16.8234L5.32242 16.8239L5.30224 16.8383L5.34522 16.867L5.35917 16.8928L5.37377 16.8859L5.37771 16.8885L5.42315 16.9172C5.65801 17.0622 5.90394 17.1884 6.15864 17.2947C6.38472 17.3881 6.63951 17.4716 6.89315 17.5103C7.14646 17.549 7.40207 17.5433 7.6275 17.4549C7.82306 17.3783 8.09311 17.2224 8.41188 17.0231C8.63107 16.8861 8.87503 16.7271 9.13589 16.5573C9.25554 16.4792 9.37837 16.3994 9.50437 16.3179C10.3058 15.7996 11.2213 15.2289 12.0687 14.862L17.2247 13.5038L17.2489 13.4974L17.258 13.4739L17.9383 11.7112L17.9729 11.6215L17.8799 11.6461L14.0095 12.6657V11.1837L18.5865 9.97788L18.6108 9.97148L18.6198 9.94802L19.3002 8.18534L19.3348 8.09559L19.2418 8.1202L14.0108 9.49849V8.01668L19.9471 6.45251L19.9714 6.44611L19.9804 6.42265L20.6142 4.78137L20.6199 4.76627L20.6157 4.75069L20.5881 4.64897L20.5753 4.60188L20.5281 4.61435L14.3834 6.23332C14.6673 5.78543 14.7654 5.38282 14.7903 5.08406C14.8038 4.92295 14.7957 4.79236 14.7842 4.70147C14.7785 4.65657 14.7705 4.61199 14.7601 4.56792L14.7581 4.56038L14.7575 4.55824L14.7573 4.55759L14.7102 4.57137ZM14.7102 4.57137L14.6837 4.52986L14.7388 4.49475L14.7573 4.55759L14.7102 4.57137ZM14.663 4.58531C14.663 4.58509 14.663 4.58509 14.663 4.58531V4.58531ZM10.6077 9.80152L11.7589 9.498L11.3927 10.4468L10.2415 10.7503L10.6077 9.80152ZM11.3225 10.8874L10.9563 11.8369L9.8051 12.1406L10.1714 11.191L11.3225 10.8874ZM12.9758 10.5326L12.6096 11.482L11.4584 11.7857L11.8247 10.8361L12.9758 10.5326Z" fill="black"/>
<path d="M7.17691 17.5821C7.07946 17.5815 6.98217 17.5737 6.88587 17.5588C6.65848 17.5241 6.40746 17.4505 6.14004 17.3401C5.8828 17.2326 5.63441 17.1052 5.39716 16.9588L5.37026 16.9419L5.3381 16.9571L5.30791 16.901L5.21571 16.8397L5.25952 16.8085L5.2395 16.7681C5.21013 16.7079 5.16567 16.6133 5.12121 16.5042C5.00473 16.219 4.94566 15.9828 4.94566 15.8025V15.6151L5.10612 15.7255L5.12646 15.739C5.2382 15.8109 5.354 15.8762 5.47329 15.9347C5.65917 16.0254 5.92823 16.1332 6.16498 16.1376L6.17745 16.1283L6.19303 16.1165L6.24209 16.0797L6.24947 15.6095H6.84518L6.85305 15.1352H7.44712C7.72177 14.9072 7.89797 14.7457 7.97098 14.6555C8.04087 14.569 8.07401 14.4094 8.0622 14.218C8.04907 14.0076 7.98328 13.7674 7.87664 13.5419C7.75875 13.291 7.59416 13.065 7.39167 12.8758C7.17024 12.6687 6.90142 12.5192 6.60877 12.4402C6.38712 12.3805 6.13348 12.3882 5.83308 12.4635L5.6992 12.4973L5.71118 12.3596C5.77254 11.6507 5.84112 11.2471 5.94809 10.9667C6.04275 10.7183 6.16416 10.5763 6.31788 10.3963L6.33248 10.3791L6.37416 10.33L6.39073 10.3105L6.41435 10.3015L6.90555 10.1152L6.91064 10.1136L6.91868 10.111C6.97596 10.09 7.03214 10.0661 7.08701 10.0394C7.24701 9.96084 7.3988 9.86654 7.54015 9.75791C7.75259 9.5953 7.94379 9.40669 8.10928 9.19649C8.31961 8.93055 8.4963 8.6249 8.63428 8.28775V8.2866L8.63822 8.27807L8.76291 7.96438L5.98779 9.85717L5.25459 12.6308L5.24278 12.6758L5.20045 12.6951C5.13532 12.7251 5.06838 12.7576 4.99652 12.7942L5.09857 13.5079L4.37374 13.2416L4.45463 13.9307L3.62381 13.6254L3.549 13.6739C3.6636 13.848 3.78522 14.0174 3.91355 14.1817C3.9772 14.2636 4.02905 14.3274 4.06137 14.3664L4.10353 14.4171L4.11551 14.4312L4.11666 14.4327L4.12978 14.4455V14.4481L4.27957 14.6224L4.03315 14.5964C3.60511 14.5517 3.16395 14.4073 2.7213 14.1674C2.63722 14.2095 2.54981 14.2446 2.45995 14.2723L2.45552 14.2736L2.45388 14.2741L2.44896 14.2755C2.2283 14.3372 1.9909 14.3125 1.74284 14.2017C1.55006 14.1156 1.35056 13.9773 1.14975 13.7904C0.954144 13.606 0.777144 13.4028 0.621305 13.1837L0.607031 13.1634L0.606047 13.164L0.579961 13.124L0.57143 13.1127V13.1109L0.568312 13.1063L0.562898 13.0766L0.508594 12.7854L0.698086 12.9596C1.24064 12.2326 1.63357 11.7587 1.86916 11.4875C1.91773 11.4316 1.96448 11.3786 2.00944 11.3286L0.469219 11.819L0.360445 11.8535L0.328125 11.6541L0.399492 11.6005L0.431156 11.5767L0.560766 11.4793L0.716297 11.3624C0.904148 11.2214 1.19536 11.0028 1.51594 10.7626C2.07359 10.3449 2.81187 9.79384 3.16198 9.53987C3.3116 9.43143 3.4714 9.21241 3.66532 8.91693C3.70781 8.85212 3.75195 8.78387 3.79739 8.71366C3.95653 8.4674 4.13684 8.18849 4.34798 7.90532C4.67135 7.47187 5.00013 7.12143 5.35303 6.83383C5.79369 6.47343 6.29836 6.19936 6.84059 6.02598C7.86909 5.69786 8.61574 5.56448 9.33729 5.57957C9.62604 5.58564 9.88952 5.61337 10.1684 5.6429L10.2167 5.64798C10.5377 5.68178 10.833 5.71033 11.1964 5.71837C11.5318 5.72575 11.9218 5.66636 12.3552 5.54167C12.705 5.4411 13.0832 5.2982 13.4792 5.11724C13.7672 4.98499 14.0496 4.84087 14.3256 4.68526C14.4342 4.62402 14.5415 4.56057 14.6475 4.49495L14.6593 4.48741L14.7676 4.41833L14.8186 4.59093L14.8162 4.59158C14.8209 4.61455 14.8275 4.64999 14.8332 4.6956C14.8488 4.81914 14.8509 4.95137 14.8395 5.08837C14.8096 5.44783 14.6918 5.80598 14.4889 6.15494L20.6102 4.5422L20.6719 4.76894L20.6604 4.79896L20.0086 6.48733L19.9598 6.50012L14.0602 8.05462V9.43471L19.4155 8.02344L19.3463 8.20309L18.6478 10.0127L18.5991 10.0255L14.0587 11.2218V12.6013L17.8674 11.598L18.0536 11.549L17.9844 11.7286L17.286 13.5384L17.2372 13.5512L12.085 14.9085C11.2565 15.2676 10.3681 15.8179 9.53137 16.3591C9.41128 16.4367 9.29348 16.5135 9.17946 16.5878L9.15912 16.6011C8.90072 16.7693 8.65659 16.9283 8.43823 17.0648C8.06712 17.2969 7.82266 17.4313 7.64564 17.5007C7.50717 17.5548 7.35033 17.5821 7.17691 17.5821ZM5.40487 16.8472L5.44934 16.8753C5.682 17.0186 5.92549 17.1436 6.17761 17.249C6.43781 17.3565 6.68095 17.428 6.90063 17.4615C7.17527 17.5033 7.41382 17.4856 7.60955 17.4088C7.78066 17.3417 8.02003 17.2098 8.38589 16.9811C8.6036 16.8449 8.84723 16.6863 9.1053 16.5183L9.12565 16.505C9.24292 16.4285 9.36034 16.3522 9.47789 16.2761C10.3194 15.7319 11.2133 15.1784 12.0494 14.8163L12.0529 14.8148L12.0565 14.8138L17.2125 13.4556L17.8927 11.6929L13.9606 12.7288V11.1457L18.5743 9.93018L19.2547 8.16749L13.9617 9.56235V7.97866L19.9347 6.4048L20.5685 4.76352L20.541 4.66197L14.2751 6.31276L14.3422 6.20694C14.5756 5.83862 14.71 5.45948 14.7415 5.08C14.755 4.91774 14.7458 4.78797 14.7356 4.70774C14.7318 4.67817 14.7271 4.64873 14.7213 4.61948L14.6885 4.62916L14.6685 4.59798L14.6682 4.59749L14.6611 4.60192L14.6555 4.63408L14.627 4.62981L14.6249 4.62407L14.6211 4.62637C14.5438 4.67312 14.4606 4.72169 14.3737 4.77074C14.0953 4.92787 13.8104 5.0733 13.5199 5.20666C13.1194 5.38975 12.7367 5.53429 12.3821 5.63617C11.9392 5.76348 11.5393 5.82419 11.194 5.81664C10.8268 5.8086 10.5294 5.77973 10.2062 5.74576L10.1579 5.74068C9.88116 5.71148 9.61964 5.68391 9.33499 5.67801C8.62493 5.66308 7.8878 5.79515 6.87028 6.11983C6.33413 6.29078 5.85802 6.54934 5.41505 6.91028C5.06855 7.19263 4.74518 7.53733 4.42673 7.96422C4.21739 8.24476 4.03807 8.52219 3.87991 8.76714C3.83447 8.83736 3.79017 8.90594 3.74752 8.97091C3.54195 9.2841 3.38182 9.50198 3.21956 9.61961C2.86995 9.87309 2.13216 10.424 1.57484 10.8414C1.3082 11.0411 1.0417 11.2411 0.775359 11.4412L0.619992 11.558L0.490383 11.6555L0.458883 11.6791L0.435586 11.6965L0.434602 11.6952L0.439523 11.7254L2.33559 11.1216L2.20631 11.2594C2.11686 11.3554 2.02918 11.4529 1.94332 11.5521C1.70395 11.8276 1.30167 12.313 0.744187 13.0623L0.711703 13.1059L0.68168 13.0785V13.0984L0.701695 13.1269C0.736477 13.176 0.774156 13.2264 0.814734 13.2779C0.903328 13.3907 1.04508 13.5587 1.21685 13.7187C1.40979 13.8982 1.60027 14.0306 1.78303 14.1123C2.00993 14.2137 2.22551 14.2367 2.42402 14.1809L2.43026 14.1778H2.43485C2.52627 14.1488 2.61512 14.1124 2.70047 14.0687L2.72344 14.0572L2.74608 14.0696C3.18052 14.3082 3.61298 14.4524 4.03151 14.498V14.4852L4.02806 14.4811C3.96246 14.4028 3.89835 14.3233 3.83578 14.2426C3.69551 14.0631 3.56325 13.8775 3.43941 13.6864L3.41283 13.6452L3.45401 13.6186L3.59051 13.5299L3.61118 13.5164L4.33798 13.7835L4.25709 13.0943L4.97749 13.3589L4.8889 12.7389L4.92007 12.7229C5.00505 12.679 5.08331 12.6408 5.15911 12.6057L5.90166 9.79663L8.97241 7.70205L8.7319 8.30694V8.30842L8.7278 8.31712C8.58588 8.66591 8.40345 8.98255 8.18557 9.25785C8.01511 9.47468 7.81799 9.66915 7.59888 9.83666C7.45231 9.94922 7.29491 10.0469 7.12901 10.1284C7.07063 10.1566 7.01089 10.182 6.95002 10.2043L6.94001 10.2078L6.93656 10.2089L6.44864 10.394L6.4068 10.4432L6.39204 10.4604C6.23864 10.6399 6.1279 10.7695 6.0393 11.002C5.93595 11.2734 5.86901 11.6692 5.80847 12.3683C6.12544 12.2887 6.39548 12.2812 6.6337 12.3453C6.94171 12.4285 7.22466 12.5858 7.45779 12.8036C7.66952 13.0013 7.84163 13.2376 7.96491 13.4999C8.0768 13.7366 8.14587 13.9894 8.15965 14.2119C8.17327 14.4307 8.13323 14.6104 8.04677 14.7174C7.96737 14.8156 7.78706 14.9807 7.49552 15.2223L7.48191 15.2337H6.94969L6.94247 15.6624L6.92229 15.6817L6.91999 15.6829L6.91671 15.6853L6.90129 15.6973L6.88784 15.7078H6.3461L6.33954 16.1291L6.32051 16.1436C6.29754 16.1611 6.27468 16.1782 6.25193 16.1951L6.23634 16.2069L6.21075 16.2261L6.19763 16.2361H6.18007C6.03668 16.2361 5.79059 16.199 5.42998 16.023C5.30697 15.9629 5.18765 15.8956 5.07265 15.8213L5.05116 15.8071L5.04394 15.8023C5.04394 15.9675 5.10218 16.1974 5.21227 16.4668C5.25773 16.5779 5.30787 16.6871 5.36255 16.7941L5.36353 16.795L5.36698 16.8028L5.38158 16.8318L5.38305 16.8328L5.38355 16.8338L5.40012 16.8441L5.40487 16.8472ZM9.72464 12.2126L10.1346 11.1498L11.4032 10.8155L10.9933 11.8781L9.72464 12.2126ZM10.2083 11.2322L9.88575 12.0684L10.9197 11.7957L11.2422 10.9597L10.2083 11.2322ZM11.3777 11.8577L11.7877 10.795L13.0563 10.4604L12.6464 11.5231L11.3777 11.8577ZM11.8616 10.8773L11.539 11.7135L12.5729 11.4409L12.8955 10.6048L11.8616 10.8773ZM10.1609 10.8225L10.5709 9.76037L11.8394 9.42585L11.4294 10.4878L10.1609 10.8225ZM10.6445 9.84273L10.322 10.6781L11.3559 10.4055L11.6783 9.57006L10.6445 9.84273Z" fill="white"/>
</svg>
