<svg width="21" height="21" viewBox="0 0 21 21" fill="none" xmlns="http://www.w3.org/2000/svg">
<g clip-path="url(#clip0_40_152)">
<path d="M4.37489 0C1.96383 0 0 1.96383 0 4.37489C0 6.48638 1.50626 8.25513 3.50011 8.66184V14.8749C3.50011 16.8059 5.08823 18.375 6.99989 18.375H7.03188C7.24549 19.8553 8.52485 21 10.0626 21C11.7488 21 13.125 19.6238 13.125 17.9376C13.125 16.2514 11.7488 14.8749 10.0626 14.8749C8.52502 14.8749 7.24566 16.0196 7.03188 17.4999H6.99989C5.56648 17.4999 4.37489 16.3265 4.37489 14.8749V10.4637C4.65795 10.7527 4.99593 10.9822 5.36896 11.1388C5.74199 11.2953 6.14255 11.3756 6.54708 11.3751H7.03188C7.24566 12.8554 8.52485 14.0001 10.0626 14.0001C11.6004 14.0001 12.8794 12.8554 13.0928 11.3751H14.9069C15.1207 12.8554 16.3999 14.0001 17.9376 14.0001C19.6238 14.0001 21 12.6236 21 10.9374C21 9.25116 19.6238 7.875 17.9376 7.875C16.3999 7.875 15.1205 9.01966 14.9069 10.5H13.093C12.8796 9.01966 11.6004 7.875 10.0626 7.875C8.52485 7.875 7.24549 9.01966 7.03188 10.5H6.54708C5.49166 10.5 4.61229 9.74712 4.41623 8.74912C6.80827 8.72681 8.75011 6.77217 8.75011 4.37489C8.75011 1.96383 6.78595 0 4.37489 0ZM4.37489 0.875109C4.83477 0.874158 5.29031 0.964031 5.71537 1.13957C6.14043 1.31511 6.52665 1.57286 6.85185 1.89803C7.17705 2.2232 7.43483 2.60939 7.61041 3.03443C7.78599 3.45948 7.87591 3.91501 7.875 4.37489C7.87586 4.83477 7.78592 5.2903 7.61033 5.71535C7.43474 6.14039 7.17696 6.52658 6.85177 6.85177C6.52658 7.17696 6.14039 7.43474 5.71535 7.61033C5.2903 7.78592 4.83477 7.87586 4.37489 7.875C3.91501 7.87591 3.45948 7.78599 3.03443 7.61041C2.60939 7.43483 2.2232 7.17705 1.89803 6.85185C1.57286 6.52665 1.31511 6.14043 1.13957 5.71537C0.964031 5.29031 0.874158 4.83477 0.875109 4.37489C0.874201 3.91504 0.964106 3.45953 1.13966 3.03451C1.31522 2.60949 1.57298 2.22331 1.89815 1.89815C2.22331 1.57298 2.60949 1.31522 3.03451 1.13966C3.45953 0.964106 3.91504 0.874201 4.37489 0.875109ZM3.5193 2.1123C3.06305 2.1146 2.625 2.48112 2.625 2.98036V5.77648C2.625 6.43978 3.39757 6.86963 3.96129 6.52017L6.19812 5.13302C6.73247 4.80162 6.73526 3.98426 6.20337 3.64908L3.96638 2.23978C3.83276 2.15507 3.6775 2.1108 3.5193 2.1123ZM3.50011 2.98036L5.7371 4.38933L3.50011 5.77648V2.98036ZM10.0626 8.75011C10.3501 8.7492 10.6349 8.80515 10.9007 8.91475C11.1665 9.02435 11.408 9.18543 11.6113 9.38872C11.8146 9.59201 11.9756 9.8335 12.0852 10.0993C12.1948 10.3651 12.2508 10.6499 12.2499 10.9374C12.2508 11.2249 12.1948 11.5097 12.0852 11.7755C11.9756 12.0413 11.8145 12.2828 11.6113 12.4861C11.408 12.6894 11.1665 12.8506 10.9007 12.9602C10.6349 13.0698 10.3501 13.1258 10.0626 13.125C9.77509 13.1259 9.49023 13.0699 9.22442 12.9602C8.95862 12.8506 8.71711 12.6895 8.5138 12.4862C8.31049 12.2829 8.14939 12.0414 8.03976 11.7756C7.93013 11.5098 7.87413 11.2249 7.875 10.9374C7.87416 10.6499 7.93016 10.3651 8.03981 10.0993C8.14945 9.8335 8.31056 9.59203 8.51387 9.38875C8.71718 9.18547 8.95868 9.02439 9.22447 8.91479C9.49027 8.80519 9.77511 8.74922 10.0626 8.75011ZM17.9376 8.75011C18.2251 8.7492 18.5099 8.80515 18.7757 8.91475C19.0415 9.02435 19.283 9.18543 19.4863 9.38872C19.6896 9.59201 19.8506 9.8335 19.9602 10.0993C20.0698 10.3651 20.1258 10.6499 20.1249 10.9374C20.1258 11.2249 20.0698 11.5097 19.9602 11.7755C19.8506 12.0413 19.6895 12.2828 19.4863 12.4861C19.283 12.6894 19.0415 12.8506 18.7757 12.9602C18.5099 13.0698 18.2251 13.1258 17.9376 13.125C17.6501 13.1259 17.3652 13.0699 17.0994 12.9602C16.8336 12.8506 16.5921 12.6895 16.3888 12.4862C16.1855 12.2829 16.0244 12.0414 15.9148 11.7756C15.8051 11.5098 15.7491 11.2249 15.75 10.9374C15.7492 10.6499 15.8052 10.3651 15.9148 10.0993C16.0244 9.8335 16.1856 9.59203 16.3889 9.38875C16.5922 9.18547 16.8337 9.02439 17.0995 8.91479C17.3653 8.80519 17.6501 8.74922 17.9376 8.75011ZM10.9538 9.89051C10.8377 9.89046 10.7264 9.93649 10.6442 10.0185L9.61062 11.0511L9.26723 10.7092C9.18505 10.6273 9.07371 10.5814 8.95769 10.5816C8.84167 10.5818 8.73048 10.628 8.64855 10.7102C8.608 10.7509 8.57587 10.7992 8.55399 10.8523C8.53211 10.9055 8.52091 10.9624 8.52103 11.0199C8.52115 11.0773 8.53259 11.1342 8.5547 11.1872C8.5768 11.2403 8.60914 11.2885 8.64987 11.329L9.30185 11.9787C9.38389 12.0604 9.495 12.1063 9.61082 12.1063C9.72663 12.1063 9.83771 12.0603 9.91971 11.9785L11.2626 10.6375C11.3032 10.5969 11.3355 10.5487 11.3575 10.4956C11.3795 10.4425 11.3909 10.3856 11.3909 10.3281C11.3909 10.2707 11.3796 10.2138 11.3577 10.1607C11.3357 10.1075 11.3035 10.0593 11.2629 10.0186C11.1808 9.93677 11.0697 9.89059 10.9538 9.89051ZM18.8288 9.89051C18.7127 9.89046 18.6014 9.93649 18.5192 10.0185L17.4856 11.0511L17.1422 10.7092C17.0601 10.6273 16.9487 10.5814 16.8327 10.5816C16.7167 10.5818 16.6055 10.628 16.5236 10.7102C16.483 10.7509 16.4509 10.7992 16.429 10.8523C16.4071 10.9055 16.3959 10.9624 16.396 11.0199C16.3962 11.0773 16.4076 11.1342 16.4297 11.1872C16.4518 11.2403 16.4841 11.2885 16.5249 11.329L17.1769 11.9787C17.2589 12.0604 17.37 12.1063 17.4858 12.1063C17.6016 12.1063 17.7127 12.0603 17.7947 11.9785L19.1376 10.6375C19.1782 10.5969 19.2105 10.5487 19.2325 10.4956C19.2545 10.4425 19.2659 10.3856 19.2659 10.3281C19.2659 10.2707 19.2546 10.2138 19.2327 10.1607C19.2107 10.1075 19.1785 10.0593 19.1379 10.0186C19.0558 9.93677 18.9447 9.89059 18.8288 9.89051ZM10.0626 15.75C10.3501 15.7492 10.6349 15.8052 10.9007 15.9148C11.1665 16.0244 11.408 16.1856 11.6113 16.3889C11.8145 16.5922 11.9756 16.8337 12.0852 17.0995C12.1948 17.3653 12.2508 17.6501 12.2499 17.9376C12.2508 18.2251 12.1948 18.5099 12.0852 18.7757C11.9756 19.0415 11.8146 19.283 11.6113 19.4863C11.408 19.6896 11.1665 19.8506 10.9007 19.9602C10.6349 20.0698 10.3501 20.1258 10.0626 20.1249C9.77511 20.1258 9.49027 20.0698 9.22447 19.9602C8.95868 19.8506 8.71718 19.6895 8.51387 19.4863C8.31056 19.283 8.14945 19.0415 8.03981 18.7757C7.93016 18.5099 7.87416 18.2251 7.875 17.9376C7.87413 17.6501 7.93013 17.3652 8.03976 17.0994C8.14939 16.8336 8.31049 16.5921 8.5138 16.3888C8.71711 16.1855 8.95862 16.0244 9.22442 15.9148C9.49023 15.8051 9.77509 15.7491 10.0626 15.75ZM9.1875 17.2814C8.82771 17.2814 8.53125 17.5778 8.53125 17.9376C8.53125 18.2977 8.82788 18.5939 9.1875 18.5939C9.54712 18.5939 9.84375 18.2977 9.84375 17.9376C9.84375 17.5778 9.54729 17.2814 9.1875 17.2814ZM10.9374 17.2814C10.5776 17.2814 10.2811 17.5778 10.2811 17.9376C10.2811 18.2977 10.5778 18.5939 10.9374 18.5939C11.297 18.5939 11.5936 18.2977 11.5936 17.9376C11.5936 17.5778 11.2972 17.2814 10.9374 17.2814ZM9.1875 17.7188C9.31055 17.7188 9.40636 17.8147 9.40636 17.9376C9.40636 18.0611 9.31071 18.1561 9.1875 18.1561C9.06445 18.1561 8.96864 18.061 8.96864 17.9376C8.96864 17.8146 9.06462 17.7188 9.1875 17.7188ZM10.9374 17.7188C11.0604 17.7188 11.1562 17.8147 11.1562 17.9376C11.1562 18.0611 11.0606 18.1561 10.9374 18.1561C10.8143 18.1561 10.7189 18.061 10.7189 17.9376C10.7189 17.8146 10.8145 17.7188 10.9374 17.7188Z" fill="#2088FF"/>
<path d="M17.9376 14.8749C16.3982 14.8749 15.1177 16.0222 14.9062 17.505C14.8917 17.5037 14.8772 17.5031 14.8627 17.5032L14.4198 17.5179C14.3038 17.5217 14.1942 17.5714 14.1149 17.656C14.0356 17.7407 13.9931 17.8533 13.9968 17.9693C14.0006 18.0852 14.0503 18.1949 14.135 18.2742C14.2197 18.3535 14.3324 18.396 14.4483 18.3922L14.8913 18.3779L14.9072 18.377C15.1216 19.8563 16.4005 21 17.9376 21C19.6238 21 21 19.6238 21 17.9376C21 16.2514 19.6238 14.8749 17.9376 14.8749ZM17.9376 15.75C18.2251 15.7491 18.5099 15.8052 18.7757 15.9148C19.0415 16.0244 19.2829 16.1855 19.4862 16.3889C19.6895 16.5922 19.8506 16.8337 19.9602 17.0995C20.0698 17.3653 20.1258 17.6501 20.1249 17.9376C20.1258 18.2251 20.0698 18.5099 19.9602 18.7757C19.8506 19.0415 19.6895 19.283 19.4863 19.4863C19.283 19.6896 19.0415 19.8506 18.7757 19.9602C18.5099 20.0698 18.2251 20.1258 17.9376 20.1249C17.6501 20.1258 17.3652 20.0698 17.0995 19.9602C16.8337 19.8506 16.5922 19.6895 16.3888 19.4862C16.1855 19.283 16.0244 19.0415 15.9148 18.7757C15.8051 18.5099 15.7491 18.2251 15.75 17.9376C15.7491 17.6501 15.8051 17.3652 15.9147 17.0994C16.0244 16.8336 16.1855 16.5921 16.3888 16.3888C16.5921 16.1855 16.8336 16.0244 17.0994 15.9147C17.3652 15.8051 17.6501 15.7491 17.9376 15.75Z" fill="#79B8FF"/>
</g>
<defs>
<clipPath id="clip0_40_152">
<rect width="21" height="21" fill="white"/>
</clipPath>
</defs>
</svg>
