<svg width="21" height="22" viewBox="0 0 21 22" fill="none" xmlns="http://www.w3.org/2000/svg">
<g clip-path="url(#clip0_25_247)">
<path d="M7.81215 16.5978C7.81215 16.5978 7.03007 17.0529 8.36947 17.2065C9.99238 17.3919 10.8217 17.3653 12.6097 17.0273C12.6097 17.0273 13.0807 17.3218 13.7373 17.5771C9.72775 19.2948 4.6633 17.4775 7.81215 16.5978ZM7.32193 14.3559C7.32193 14.3559 6.44453 15.0054 7.78508 15.1442C9.51873 15.3232 10.8875 15.3378 13.2572 14.8817C13.2572 14.8817 13.5842 15.2139 14.0992 15.3954C9.25246 16.8129 3.85414 15.507 7.32193 14.3559Z" fill="#0074BD"/>
<path d="M11.452 10.5523C12.4405 11.6901 11.1928 12.713 11.1928 12.713C11.1928 12.713 13.7011 11.4184 12.5494 9.79645C11.4733 8.28461 10.6484 7.5337 15.1145 4.94348C15.1145 4.94365 8.10395 6.69403 11.452 10.5523Z" fill="#EA2D2E"/>
<path d="M16.7545 18.2563C16.7545 18.2563 17.3334 18.7338 16.1166 19.1027C13.803 19.8036 6.48513 20.0149 4.45273 19.1308C3.72248 18.8128 5.09241 18.372 5.5234 18.279C5.97277 18.1817 6.22936 18.1994 6.22936 18.1994C5.41676 17.6273 0.977227 19.3232 3.97465 19.8097C12.1484 21.1346 18.8743 19.213 16.7545 18.2563ZM8.18859 12.0326C8.18859 12.0326 4.46667 12.9168 6.87068 13.2382C7.8859 13.374 9.90879 13.3428 11.7944 13.1847C13.3349 13.0552 14.8809 12.7788 14.8809 12.7788C14.8809 12.7788 14.3382 13.0116 13.9451 13.2797C10.1647 14.274 2.86362 13.8109 4.96575 12.7944C6.74288 11.9348 8.18859 12.0326 8.18859 12.0326ZM14.8654 15.7646C18.708 13.7684 16.9312 11.85 15.691 12.1084C15.3878 12.1716 15.2518 12.2265 15.2518 12.2265C15.2518 12.2265 15.3647 12.0495 15.5799 11.9734C18.0332 11.1112 19.9196 14.5169 14.7887 15.8658C14.7887 15.8654 14.8476 15.8121 14.8654 15.7646Z" fill="#0074BD"/>
<path d="M12.5493 0.760376C12.5493 0.760376 14.6768 2.88925 10.5308 6.16181C7.20593 8.78779 9.77268 10.2847 10.5297 11.9957C8.58865 10.2447 7.16491 8.70297 8.11992 7.26824C9.52233 5.16266 13.4075 4.14138 12.5493 0.760376Z" fill="#EA2D2E"/>
<path d="M8.56635 21.1753C12.2538 21.411 17.9179 21.044 18.052 19.2991C18.052 19.2991 17.7942 19.9606 15.0042 20.4854C11.8565 21.078 7.97343 21.0089 5.67114 20.6288C5.67114 20.629 6.14282 21.0194 8.56635 21.1753Z" fill="#0074BD"/>
</g>
<defs>
<clipPath id="clip0_25_247">
<rect width="21" height="21" fill="white" transform="translate(0 0.5)"/>
</clipPath>
</defs>
</svg>
