<svg width="21" height="22" viewBox="0 0 21 22" fill="none" xmlns="http://www.w3.org/2000/svg">
<path d="M19.9829 15.7742C18.8837 16.3484 13.1907 18.6781 11.9767 19.3179C10.7626 19.9578 10.0899 19.9414 9.13838 19.482C8.18682 19.0226 2.13291 16.5945 1.03369 16.0695C0.492285 15.807 0.213379 15.5937 0.213379 15.3804V13.2969C0.213379 13.2969 8.08838 11.5742 9.36807 11.1312C10.6478 10.6719 11.0743 10.6554 12.1571 11.0492C13.2399 11.4429 19.7204 12.6078 20.7868 13.0015V15.0523C20.7868 15.2656 20.5407 15.4953 19.9829 15.7742Z" fill="#A41E11"/>
<path d="M19.9827 13.707C18.8835 14.2813 13.1905 16.611 11.9765 17.2508C10.7624 17.8906 10.0897 17.8742 9.13818 17.4149C8.18662 16.9555 2.13272 14.511 1.0335 13.986C-0.0493158 13.461 -0.0821284 13.1 0.984278 12.6899C2.05068 12.2633 8.07178 9.9008 9.35147 9.45783C10.6312 8.99845 11.0577 8.98205 12.1405 9.3758C13.2233 9.76955 18.8835 12.0172 19.9499 12.411C21.0491 12.8047 21.0819 13.1328 19.9827 13.707Z" fill="#D82C20"/>
<path d="M19.9829 12.3945C18.8837 12.9688 13.1907 15.2985 11.9767 15.9383C10.7626 16.5617 10.0899 16.5617 9.13838 16.1024C8.18682 15.643 2.13291 13.1985 1.03369 12.6735C0.492285 12.411 0.213379 12.1977 0.213379 11.9844V9.9008C0.213379 9.9008 8.08838 8.17814 9.36807 7.73517C10.6478 7.2758 11.0743 7.25939 12.1571 7.65314C13.2399 8.04689 19.7204 9.21173 20.7868 9.60548V11.6563C20.7868 11.8695 20.5407 12.0992 19.9829 12.3945Z" fill="#A41E11"/>
<path d="M19.9829 10.3109C18.8837 10.8851 13.1907 13.2148 11.9767 13.8547C10.7626 14.4781 10.0899 14.4781 9.13837 14.0187C8.18681 13.5594 2.1329 11.1148 1.03368 10.5898C-0.0655362 10.0648 -0.0819425 9.7039 0.984464 9.29374C2.05087 8.86718 8.07196 6.50468 9.35165 6.06171C10.6313 5.60234 11.0579 5.58593 12.1407 5.97968C13.2235 6.37343 18.8837 8.62109 19.9501 9.01484C21.0493 9.40859 21.0821 9.73671 19.9829 10.3109Z" fill="#D82C20"/>
<path d="M19.9827 8.86722C18.8835 9.44143 13.1905 11.7711 11.9765 12.411C10.7624 13.0344 10.0897 13.0344 9.13818 12.575C8.18662 12.1321 2.13271 9.68753 1.0335 9.16253C0.49209 8.90003 0.196777 8.68675 0.196777 8.47347V6.38987C0.196777 6.38987 8.07178 4.66722 9.35146 4.22425C10.6312 3.76487 11.0577 3.74847 12.1405 4.14222C13.2233 4.53597 19.7038 5.70081 20.7702 6.09456V8.14534C20.7866 8.35862 20.5405 8.5719 19.9827 8.86722Z" fill="#A41E11"/>
<path d="M19.9829 6.7836C18.8837 7.35782 13.1907 9.6875 11.9767 10.3273C10.7626 10.9508 10.0899 10.9508 9.13837 10.4914C8.18681 10.032 2.1329 7.60391 1.03368 7.07891C-0.0655362 6.55391 -0.0819425 6.19297 0.984464 5.78282C2.05087 5.35625 8.07196 2.99375 9.35165 2.55078C10.6313 2.09141 11.0579 2.075 12.1407 2.46875C13.2235 2.8625 18.8837 5.11016 19.9501 5.50391C21.0493 5.89766 21.0821 6.22578 19.9829 6.7836Z" fill="#D82C20"/>
<path d="M13.1905 4.78202L11.4187 4.97889L11.0085 5.93046L10.3687 4.86405L8.31787 4.68358L9.84365 4.12577L9.38428 3.27264L10.828 3.83046L12.1733 3.38749L11.8124 4.27343L13.1905 4.78202ZM10.9101 9.44139L7.57959 8.06327L12.3538 7.34139L10.9101 9.44139Z" fill="white"/>
<path d="M6.30005 7.29218C7.70449 7.29218 8.84302 6.85146 8.84302 6.3078C8.84302 5.76415 7.70449 5.32343 6.30005 5.32343C4.89561 5.32343 3.75708 5.76415 3.75708 6.3078C3.75708 6.85146 4.89561 7.29218 6.30005 7.29218Z" fill="white"/>
<path d="M15.3071 5.04456L18.129 6.16018L15.3071 7.27581V5.04456Z" fill="#7A0C00"/>
<path d="M12.1899 6.29143L15.3071 5.04456V7.27581L14.9954 7.40706L12.1899 6.29143Z" fill="#AD2115"/>
</svg>
