<svg width="21" height="21" viewBox="0 0 21 21" fill="none" xmlns="http://www.w3.org/2000/svg">
<g clip-path="url(#clip0_40_138)">
<path d="M10.5 0C8.4233 0 6.39323 0.615814 4.66652 1.76957C2.9398 2.92332 1.59399 4.5632 0.79927 6.48182C0.00454945 8.40045 -0.203386 10.5116 0.201759 12.5484C0.606904 14.5852 1.60693 16.4562 3.07538 17.9246C4.54383 19.3931 6.41476 20.3931 8.45156 20.7982C10.4884 21.2034 12.5996 20.9955 14.5182 20.2007C16.4368 19.406 18.0767 18.0602 19.2304 16.3335C20.3842 14.6068 21 12.5767 21 10.5C21 7.71523 19.8938 5.04451 17.9246 3.07538C15.9555 1.10625 13.2848 0 10.5 0ZM11.2686 3.60084C11.3982 3.61551 11.5224 3.66059 11.6312 3.73242C11.7413 3.80527 11.8819 3.90173 12.2917 4.74863C12.447 4.69301 12.6157 4.68711 12.7744 4.73173C12.8611 4.7553 12.9419 4.79673 13.0116 4.85335C13.0813 4.90996 13.1384 4.98053 13.1793 5.06051C13.5977 5.86327 13.6533 7.29405 13.4704 8.21379C13.308 9.02801 12.9706 9.79719 12.4814 10.468C12.9188 10.9233 13.2523 11.4681 13.4587 12.0648C13.6604 12.6294 13.7418 13.2299 13.6976 13.8278C13.8796 13.7405 14.056 13.6421 14.2259 13.5332C14.744 13.2131 15.5264 12.7303 16.4596 12.7185C16.7426 12.6996 17.0224 12.7887 17.2423 12.9679C17.4623 13.147 17.6062 13.4029 17.6449 13.684C17.6803 13.9499 17.615 14.2194 17.4618 14.4397C17.3086 14.6599 17.0787 14.815 16.8171 14.8744C16.2497 15.0116 15.9854 15.1182 15.2234 15.6127C14.4006 16.1291 13.515 16.5378 12.5882 16.8287C12.4091 16.9757 12.1978 17.0784 11.9716 17.1286C11.3264 17.2861 9.11286 17.4046 8.93846 17.4046H8.89777C8.22019 17.4046 7.83629 17.1946 7.62957 16.9746C7.05371 17.2625 6.30854 17.1435 5.76664 16.8574C5.63691 16.7938 5.52358 16.7012 5.43546 16.5867C5.34735 16.4722 5.2868 16.3389 5.25854 16.1972C5.23843 16.0818 5.23843 15.9637 5.25854 15.8483C5.20869 15.7962 5.16387 15.7395 5.12466 15.679C4.81686 15.167 4.68261 14.5694 4.7419 13.975C4.79112 13.3434 5.22818 12.7795 5.51267 12.4797C5.48904 11.8027 5.60782 11.1282 5.8613 10.5C6.13384 9.91578 6.52756 9.39623 7.0163 8.97586C6.7369 8.505 6.45258 7.78017 6.72854 7.04173C6.92672 6.51509 7.08931 6.22207 7.44664 6.09673C7.60254 6.05153 7.74728 5.97424 7.87156 5.86983C8.39275 5.30365 9.11221 4.96029 9.88018 4.91121C9.91233 4.83 9.94958 4.74173 9.99026 4.6638C10.2613 4.08795 10.5491 3.76474 10.886 3.64777C11.0081 3.6022 11.1392 3.58613 11.2686 3.60084ZM11.1771 4.20738C10.7336 4.22198 10.2985 5.53612 10.2985 5.53612C9.93145 5.5001 9.56102 5.55023 9.21671 5.68253C8.8724 5.81482 8.5637 6.02563 8.31518 6.2982C8.13105 6.47573 7.90778 6.60752 7.66336 6.68292C7.5938 6.70655 7.50915 6.70294 7.29915 7.27027C6.97742 8.12897 7.84793 9.1012 7.84793 9.1012C7.84793 9.1012 6.80975 9.83456 6.42518 10.7474C6.16856 11.3733 6.06692 12.0519 6.12889 12.7255C6.12889 12.7255 5.39061 13.3655 5.34336 14.026C5.29945 14.4887 5.4044 14.9533 5.64293 15.3521C5.66156 15.3919 5.68798 15.4276 5.72063 15.457C5.75327 15.4864 5.79148 15.5089 5.83299 15.5233C5.8745 15.5377 5.91848 15.5436 5.96231 15.5407C6.00615 15.5378 6.04895 15.5261 6.0882 15.5064C6.0882 15.5064 5.59716 16.0785 6.05604 16.3206C6.4744 16.539 7.17889 16.6594 7.55147 16.2885C7.8225 16.0176 7.87665 15.4132 7.97656 15.1659C8.00018 15.1084 8.08156 15.2624 8.15949 15.3353C8.2313 15.3981 8.3083 15.4547 8.38967 15.5046C8.38967 15.5046 7.72948 15.789 8.00035 16.4378C8.09009 16.6527 8.41018 16.7897 8.93354 16.7864C9.12828 16.7864 11.2637 16.6645 11.8327 16.5272C12.0048 16.5 12.1616 16.4125 12.275 16.2803C13.199 16.0055 14.0815 15.6067 14.8984 15.0947C15.701 14.5714 16.0296 14.4288 16.6781 14.2748C17.2133 14.1478 17.1777 13.3183 16.4681 13.3301C15.7331 13.3386 15.0897 13.7178 14.546 14.0564C13.5299 14.6847 13.0218 14.6442 13.0218 14.6442L13.0046 14.6155C12.9352 14.502 13.3299 13.4841 12.8878 12.2715C12.4103 10.9456 11.6517 10.6255 11.7126 10.5238C11.9718 10.0852 12.6205 9.38897 12.8796 8.09173C13.0338 7.30587 12.9929 6.01207 12.6441 5.33466C12.5797 5.20931 12.004 5.54466 12.004 5.54466C12.004 5.54466 11.4653 4.34388 11.3147 4.24741C11.2741 4.22014 11.226 4.20615 11.1771 4.20738Z" fill="#2C8EBB"/>
</g>
<defs>
<clipPath id="clip0_40_138">
<rect width="21" height="21" fill="white"/>
</clipPath>
</defs>
</svg>
