<svg width="21" height="22" viewBox="0 0 21 22" fill="none" xmlns="http://www.w3.org/2000/svg">
<g clip-path="url(#clip0_25_298)">
<path d="M0.763696 16.2997C0.537375 16.6568 0.315219 17.0165 0.0972738 17.3787C-0.0923825 17.6959 0.00244564 18.1085 0.319414 18.2991L4.66445 20.9651C4.98174 21.1554 5.39338 21.0598 5.58385 20.7428C5.78787 20.3787 5.99934 20.0189 6.21812 19.6635C7.93126 16.8395 9.67508 17.1566 12.7829 18.6486L17.0966 20.6787C17.4451 20.8378 17.8262 20.6787 17.9842 20.3615L20.0463 15.6972C20.2043 15.3793 20.0463 14.9675 19.7282 14.8084C18.8088 14.3956 17.0018 13.5385 15.4158 12.7456C9.54891 9.92061 4.56896 10.1112 0.764024 16.2997H0.763696Z" fill="url(#paint0_linear_25_298)"/>
<path d="M20.2359 5.70028C20.4623 5.3432 20.6845 4.9835 20.9025 4.62124C21.0928 4.30411 20.9972 3.89149 20.6802 3.70085L16.3352 1.03484C16.018 0.844524 15.6063 0.940172 15.4158 1.25714C15.2121 1.62142 15.0007 1.98129 14.7817 2.33651C13.0684 5.16052 11.3245 4.84338 8.21671 3.3514L3.90302 1.32129C3.55455 1.16215 3.17442 1.32129 3.01544 1.63842L0.954158 6.30272C0.795346 6.62067 0.954158 7.03345 1.27129 7.19161C2.1907 7.60439 3.99867 8.46145 5.58367 9.25437C11.4517 12.0479 16.4307 11.8886 20.2356 5.70028H20.2359Z" fill="url(#paint1_linear_25_298)"/>
</g>
<defs>
<linearGradient id="paint0_linear_25_298" x1="19.9419" y1="22.3461" x2="6.81783" y2="14.8106" gradientUnits="userSpaceOnUse">
<stop stop-color="#0052CC"/>
<stop offset="0.918" stop-color="#2380FB"/>
<stop offset="1" stop-color="#2684FF"/>
</linearGradient>
<linearGradient id="paint1_linear_25_298" x1="1.05772" y1="-0.354783" x2="14.1818" y2="7.18156" gradientUnits="userSpaceOnUse">
<stop stop-color="#0052CC"/>
<stop offset="0.918" stop-color="#2380FB"/>
<stop offset="1" stop-color="#2684FF"/>
</linearGradient>
<clipPath id="clip0_25_298">
<rect width="21" height="21" fill="white" transform="translate(0 0.5)"/>
</clipPath>
</defs>
</svg>
