<svg width="23" height="23" viewBox="0 0 23 23" fill="none" xmlns="http://www.w3.org/2000/svg">
<g clip-path="url(#clip0_25_221)">
<path d="M4.07349 8.44531H21.9829V21.6829H4.07349V8.44531Z" fill="white"/>
<path d="M0.269531 11.4838V22.7143H22.7305V0.253357H0.269531V11.4838ZM18.3695 10.5854C18.9074 10.7102 19.3964 10.9916 19.7746 11.394C19.9828 11.6108 20.1638 11.8521 20.3137 12.1127C20.3137 12.1415 19.3434 12.7973 18.7522 13.1639C18.7306 13.1783 18.6444 13.0848 18.5491 12.9429C18.4412 12.7567 18.2879 12.6008 18.1034 12.4899C17.919 12.379 17.7095 12.3166 17.4944 12.3086C16.8134 12.2619 16.3749 12.6194 16.3785 13.207C16.3731 13.3533 16.4065 13.4984 16.4755 13.6275C16.6247 13.9384 16.9032 14.1234 17.7765 14.5008C19.3847 15.1926 20.0729 15.649 20.5005 16.2977C20.9785 17.0164 21.0845 18.1772 20.7611 19.0361C20.4017 19.9705 19.5212 20.6048 18.276 20.815C17.7073 20.8802 17.1326 20.8741 16.5654 20.797C15.696 20.6537 14.8952 20.2363 14.2798 19.6057C14.0731 19.3775 13.6706 18.7827 13.6958 18.7396C13.7612 18.6907 13.8303 18.6469 13.9024 18.6084L14.7344 18.1484L15.3795 17.7747L15.5142 17.9741C15.7417 18.2994 16.0312 18.5766 16.3659 18.7899C17.0847 19.1673 18.0658 19.1152 18.5509 18.6785C18.7138 18.5185 18.8154 18.3064 18.8381 18.0792C18.8608 17.852 18.803 17.6241 18.6749 17.4351C18.4952 17.1853 18.1359 16.9751 17.1314 16.5366C15.9724 16.0371 15.4729 15.728 15.0165 15.2357C14.7317 14.9107 14.5213 14.5274 14.4002 14.1127C14.3099 13.6387 14.2965 13.1533 14.3606 12.6752C14.5996 11.5557 15.4387 10.7741 16.6642 10.5423C17.2318 10.4722 17.8066 10.4879 18.3695 10.589V10.5854ZM13.0974 11.527V12.4469H10.1811V20.7539H8.11289V12.4452H5.18937V11.5467C5.18021 11.2369 5.1874 10.9268 5.21094 10.6177C5.22531 10.6016 7.00781 10.6016 9.16406 10.6016H13.0866L13.0974 11.527Z" fill="#007ACC"/>
</g>
<defs>
<clipPath id="clip0_25_221">
<rect width="23" height="23" fill="white"/>
</clipPath>
</defs>
</svg>
