<svg width="22" height="22" viewBox="0 0 22 22" fill="none" xmlns="http://www.w3.org/2000/svg">
<g clip-path="url(#clip0_25_272)">
<path d="M15.4501 15.6121C15.5788 14.5403 15.5403 14.383 16.3386 14.5567L16.5412 14.5744C17.1552 14.6023 17.9582 14.4757 18.4301 14.2565C19.4458 13.7851 20.0479 12.9984 19.0466 13.205C16.7622 13.6763 16.6052 12.9028 16.6052 12.9028C19.0174 9.32377 20.0258 4.78038 19.1552 3.6682C16.7813 0.634852 12.672 2.06925 12.6032 2.10633L12.5813 2.11043C12.1299 2.01675 11.6248 1.9608 11.0573 1.95162C10.0235 1.93455 9.23914 2.22265 8.64408 2.67382C8.64408 2.67382 1.31328 -0.346406 1.65437 6.47203C1.72688 7.92251 3.73337 17.4475 6.12671 14.5705C7.00149 13.5185 7.84674 12.629 7.84674 12.629C8.26641 12.9077 8.7691 13.0501 9.29607 12.9989L9.33692 12.9641C9.32412 13.0947 9.3297 13.2225 9.35316 13.3738C8.73678 14.0627 8.9179 14.1836 7.6853 14.4373C6.4381 14.6942 7.1708 15.1518 7.64905 15.2714C8.22901 15.4164 9.57055 15.6218 10.4772 14.3529L10.4411 14.4976C10.6829 14.6912 10.6666 15.8884 10.7008 16.7437C10.7351 17.5991 10.7923 18.3972 10.9667 18.8679C11.1411 19.3386 11.3469 20.5506 12.9668 20.2034C14.3206 19.914 15.3557 19.4965 15.4501 15.6121Z" fill="black"/>
<path d="M12.4393 21.0498C11.7228 21.0498 11.2562 20.7727 10.9729 20.5051C10.5452 20.1015 10.3755 19.5816 10.2742 19.2711L10.2304 19.1415C10.0263 18.5905 9.95702 17.7973 9.91601 16.7758C9.90977 16.6224 9.90551 16.4644 9.90075 16.2969C9.89731 16.1744 9.89304 16.0207 9.88681 15.8599C9.62868 15.9829 9.3547 16.0695 9.07273 16.1171C8.56758 16.2034 8.02453 16.1755 7.45835 16.0339C7.05886 15.934 6.64378 15.727 6.4072 15.4072C5.71765 16.0111 5.05992 15.9293 4.70161 15.8097C4.06948 15.5989 3.50379 15.0064 2.97206 13.9989C2.59324 13.2811 2.22689 12.346 1.88302 11.2192C1.28419 9.25702 0.903728 7.19032 0.869931 6.51176C0.763619 4.38797 1.33538 2.86908 2.56896 1.99774C4.51491 0.623226 7.46327 1.43156 8.53821 1.79857C9.26042 1.36331 10.1101 1.15151 11.0702 1.16677C11.5858 1.17513 12.0769 1.22041 12.533 1.30179C13.0088 1.15216 13.9485 0.937406 15.0243 0.950859C17.0063 0.974484 18.6487 1.74689 19.7737 3.18457C20.5766 4.21029 20.1796 6.36426 19.8717 7.557C19.4382 9.2347 18.6788 11.019 17.7459 12.5724C17.9992 12.5742 18.3662 12.5438 18.8879 12.4361C19.9173 12.2236 20.2183 12.7755 20.3 13.0226C20.6273 14.0138 19.2046 14.763 18.7608 14.969C18.1921 15.233 17.265 15.3938 16.5057 15.359L16.4726 15.3569L16.2731 15.3393L16.2534 15.5057L16.2344 15.6683C16.1834 17.6368 15.9022 18.8835 15.3235 19.7073C14.717 20.5709 13.874 20.8129 13.1315 20.9721C12.8782 21.0262 12.648 21.0498 12.4393 21.0498ZM10.9316 13.8851C11.394 14.2552 11.4346 14.9516 11.4708 16.2531C11.4754 16.4156 11.4797 16.5693 11.4854 16.7128C11.5028 17.1476 11.5437 18.1656 11.7031 18.5958C11.7256 18.6566 11.7458 18.7183 11.7671 18.7838C11.9448 19.3278 12.0339 19.6007 12.8022 19.4364C13.4471 19.2981 13.7787 19.1741 14.0382 18.8046C14.4154 18.2675 14.6264 17.187 14.6651 15.5931L15.4498 15.6121L14.6705 15.5186L14.6935 15.324C14.7682 14.6826 14.822 14.2192 15.2507 13.9128C15.5947 13.667 15.9866 13.6908 16.2989 13.7471C15.9558 13.4879 15.861 13.1839 15.8357 13.0592L15.7703 12.7368L15.9542 12.4639C17.0135 10.8922 17.887 8.96055 18.351 7.16407C18.8277 5.3182 18.6824 4.33793 18.537 4.15254C16.6127 1.69373 13.2758 2.70895 12.9274 2.82412L12.8685 2.85595L12.5732 2.91091L12.4219 2.87958C12.0049 2.79295 11.5415 2.74505 11.0449 2.73701C10.2646 2.72388 9.63513 2.90829 9.11899 3.29991L8.76084 3.57143L8.34527 3.40031C7.45737 3.03724 4.84943 2.30733 3.47327 3.28202C2.7094 3.8231 2.36142 4.88327 2.43886 6.43317C2.46445 6.94488 2.8121 8.88197 3.38567 10.7606C4.17825 13.3569 4.89849 14.2194 5.19921 14.3197C5.25171 14.3374 5.38788 14.2316 5.5234 14.0688C6.08846 13.3915 6.67354 12.7311 7.27788 12.0886L7.73234 11.6103L8.28178 11.9754C8.50327 12.1225 8.74756 12.206 8.99841 12.2218L10.3088 11.1042L10.119 13.0414C10.1147 13.0849 10.1126 13.1441 10.1296 13.2541L10.1867 13.6212L9.93898 13.8982L9.91043 13.9303L10.6303 14.2626L10.9316 13.8851Z" fill="black"/>
<path d="M19.0466 13.205C16.7621 13.6764 16.605 12.9028 16.605 12.9028C19.0173 9.32362 20.0256 4.78007 19.1554 3.66822C16.7814 0.635032 12.6718 2.06943 12.6032 2.10667L12.5811 2.11061C12.1297 2.01693 11.6246 1.96115 11.0568 1.95196C10.023 1.93506 9.23897 2.22299 8.64391 2.67416C8.64391 2.67416 1.31294 -0.345897 1.65387 6.47238C1.72638 7.92302 3.73287 17.448 6.12621 14.571C7.00099 13.519 7.84608 12.6295 7.84608 12.6295C8.26591 12.9082 8.76844 13.0506 9.29524 12.9994L9.33626 12.9647C9.32346 13.0953 9.32937 13.2231 9.35266 13.3743C8.73612 14.0632 8.91724 14.1841 7.68464 14.4378C6.43744 14.6947 7.17014 15.1523 7.64855 15.2719C8.22834 15.4169 9.57005 15.6223 10.4765 14.3534L10.4402 14.4981C10.6819 14.6917 10.8515 15.7568 10.8232 16.7223C10.7948 17.6879 10.7756 18.3508 10.9661 18.8686C11.1564 19.3864 11.346 20.5512 12.9663 20.2041C14.3201 19.914 15.0217 19.1621 15.1195 17.908C15.1887 17.0163 15.3454 17.1483 15.3554 16.3511L15.4812 15.9737C15.6262 14.7651 15.5042 14.3753 16.3384 14.5566L16.5411 14.5743C17.155 14.6022 17.9584 14.4755 18.4301 14.2563C19.4456 13.7853 20.0479 12.9985 19.0466 13.205Z" fill="#336791"/>
<path d="M12.5212 20.566C11.1707 20.566 10.7428 19.4965 10.5677 19.0591C10.3115 18.4181 10.2562 15.9306 10.3133 13.8906C10.3141 13.8562 10.3218 13.8223 10.3358 13.7909C10.3498 13.7594 10.3699 13.7311 10.3949 13.7075C10.4199 13.6838 10.4493 13.6654 10.4815 13.6532C10.5137 13.6409 10.5479 13.6352 10.5823 13.6363C10.6167 13.6372 10.6505 13.6449 10.6819 13.659C10.7133 13.673 10.7416 13.6931 10.7652 13.718C10.7888 13.743 10.8073 13.7724 10.8196 13.8045C10.8318 13.8366 10.8376 13.8708 10.8366 13.9052C10.7708 16.258 10.8642 18.3902 11.0538 18.8647C11.3498 19.6044 11.7987 20.2515 13.0677 19.9796C14.2724 19.7212 14.7236 19.2645 14.9246 18.0995C15.0788 17.2055 15.3838 14.6622 15.4214 14.1603C15.4239 14.126 15.4331 14.0926 15.4486 14.0619C15.4641 14.0311 15.4854 14.0038 15.5115 13.9813C15.5376 13.9589 15.5678 13.9418 15.6005 13.9311C15.6331 13.9204 15.6676 13.9162 15.7019 13.9188C15.7711 13.9241 15.8354 13.9566 15.8807 14.0092C15.926 14.0617 15.9485 14.1302 15.9434 14.1994C15.9042 14.7219 15.6007 17.2603 15.4405 18.1886C15.2033 19.5645 14.5899 20.1886 13.1775 20.4915C12.9374 20.5428 12.7194 20.5658 12.5212 20.566ZM5.19813 15.3421C5.08008 15.3417 4.96286 15.3223 4.85097 15.2846C3.97373 14.992 3.13816 13.5633 2.36739 11.0379C1.78071 9.11557 1.40894 7.10908 1.37629 6.45693C1.27966 4.52362 1.77742 3.15583 2.85614 2.39179C4.9901 0.879794 8.57995 2.31961 8.73171 2.38162C8.79599 2.40788 8.84722 2.4586 8.87411 2.52263C8.901 2.58666 8.90136 2.65875 8.8751 2.72304C8.84884 2.78733 8.79811 2.83855 8.73409 2.86544C8.67006 2.89233 8.59797 2.89269 8.53368 2.86643C8.49906 2.85232 5.05671 1.47321 3.15768 2.81967C2.23532 3.47362 1.81188 4.68867 1.89899 6.43085C1.92639 6.98029 2.27371 8.93854 2.86795 10.885C3.55603 13.1395 4.3391 14.5621 5.01651 14.788C5.12282 14.8235 5.44635 14.9313 5.90885 14.3751C6.44817 13.7273 7.00774 13.0967 7.58671 12.4841C7.63516 12.4358 7.70059 12.4083 7.76901 12.4077C7.83743 12.407 7.9034 12.4331 7.9528 12.4804C8.0022 12.5278 8.03111 12.5926 8.03333 12.661C8.03556 12.7294 8.01093 12.7959 7.96471 12.8463C7.95684 12.8546 7.1695 13.6777 6.31146 14.7099C5.90507 15.1987 5.51559 15.3421 5.19813 15.3421ZM16.5888 13.1362C16.5414 13.1362 16.4948 13.1232 16.4542 13.0987C16.4135 13.0743 16.3802 13.0392 16.358 12.9973C16.3357 12.9554 16.3252 12.9082 16.3277 12.8608C16.3301 12.8134 16.3454 12.7676 16.3719 12.7282C18.8104 9.10983 19.6663 4.73772 18.9333 3.80093C18.0106 2.62197 16.7078 2.00625 15.0607 1.97065C13.8413 1.9444 12.872 2.25579 12.7135 2.31009L12.6736 2.32633C12.5143 2.37637 12.3921 2.28909 12.346 2.18704C12.3197 2.12858 12.3157 2.06251 12.3348 2.00131C12.3539 1.94011 12.3947 1.888 12.4495 1.85482C12.4571 1.85039 12.481 1.84022 12.5199 1.82594C12.7891 1.72734 13.7732 1.43203 14.992 1.44597C16.8144 1.46533 18.3198 2.16801 19.3452 3.47838C19.8304 4.09837 19.8315 5.5267 19.3484 7.39734C18.8558 9.30457 17.929 11.3542 16.8059 13.0209C16.7557 13.0959 16.673 13.1362 16.5888 13.1362ZM16.7135 14.8113C16.2971 14.8113 15.9239 14.7526 15.7004 14.6187C15.4707 14.4811 15.4269 14.294 15.4212 14.1948C15.3585 13.0939 15.9659 12.9023 16.2756 12.8148C16.2325 12.7496 16.1711 12.6728 16.1076 12.5935C15.927 12.3678 15.6796 12.0587 15.4889 11.5964C15.4591 11.5242 15.3656 11.3563 15.2573 11.1619C14.6701 10.109 13.4483 7.91791 14.2332 6.79589C14.5964 6.27663 15.3198 6.07221 16.3855 6.18623C16.072 5.23106 14.5791 2.24315 11.0365 2.18508C9.97103 2.16736 9.09724 2.49499 8.44066 3.15797C6.97066 4.64257 7.02381 7.32876 7.02463 7.35567C7.02554 7.39003 7.01967 7.42424 7.00735 7.45633C6.99504 7.48843 6.97652 7.51778 6.95286 7.54272C6.9292 7.56766 6.90086 7.5877 6.86946 7.60168C6.83806 7.61567 6.80421 7.62333 6.76985 7.62424C6.73548 7.62514 6.70128 7.61927 6.66918 7.60696C6.63709 7.59464 6.60773 7.57613 6.58279 7.55247C6.55785 7.52881 6.53782 7.50047 6.52383 7.46907C6.50985 7.43766 6.50218 7.40381 6.50128 7.36945C6.49799 7.25018 6.4432 4.43125 8.06873 2.78948C8.82949 2.02118 9.83092 1.64186 11.0452 1.66172C13.3115 1.69896 14.7704 2.85117 15.5949 3.8111C16.4938 4.85732 16.9345 6.01134 16.9708 6.39656C16.9978 6.68301 16.7923 6.74027 16.7508 6.7488L16.6563 6.75093C15.6104 6.58343 14.9393 6.69975 14.6619 7.09612C14.0649 7.94941 15.2207 10.022 15.7142 10.9071C15.8402 11.1329 15.9311 11.2961 15.9728 11.3969C16.1349 11.7899 16.3463 12.0541 16.5161 12.2664C16.6656 12.4531 16.795 12.615 16.8413 12.805C16.8628 12.8427 17.1678 13.2939 18.9776 12.9203C19.4312 12.8268 19.7032 12.9067 19.7864 13.1582C19.95 13.6529 19.0322 14.2299 18.5241 14.4658C18.0688 14.6775 17.3422 14.8113 16.7135 14.8113ZM15.9431 14.1516C16.0005 14.2095 16.2878 14.3095 16.8827 14.2839C17.4116 14.2612 17.9694 14.1462 18.3041 13.9908C18.7321 13.792 19.0179 13.5697 19.1659 13.4179L19.0839 13.433C17.9268 13.6719 17.1082 13.6401 16.6512 13.3384C16.6204 13.3181 16.5908 13.2962 16.5626 13.2726C16.513 13.2921 16.4673 13.3049 16.4346 13.3141C16.1754 13.3868 15.9073 13.4621 15.9431 14.1516ZM8.46806 15.6142C8.18062 15.6142 7.87809 15.575 7.56916 15.4978C7.24907 15.4177 6.70947 15.1767 6.71767 14.7808C6.72703 14.3367 7.37294 14.2035 7.61608 14.1534C8.49447 13.9725 8.55173 13.9 8.82621 13.5513C8.90627 13.4498 9.00585 13.3233 9.1417 13.1717C9.34333 12.9459 9.56367 12.8316 9.79663 12.8316C9.95889 12.8316 10.0919 12.8865 10.1799 12.9231C10.4601 13.0393 10.6939 13.3202 10.79 13.656C10.8768 13.959 10.8353 14.2507 10.6735 14.4773C10.1425 15.221 9.37975 15.6142 8.46806 15.6142ZM7.2832 14.8033C7.36211 14.8643 7.52027 14.9459 7.69631 14.9898C7.96389 15.0568 8.22344 15.0907 8.46822 15.0907C9.21405 15.0907 9.81288 14.782 10.2478 14.173C10.3385 14.046 10.3113 13.8847 10.287 13.7999C10.2362 13.6222 10.1098 13.4606 9.97973 13.4066C9.90918 13.3774 9.85061 13.3551 9.7968 13.3551C9.76792 13.3551 9.67999 13.3551 9.532 13.5206C9.42987 13.6355 9.3317 13.7538 9.23767 13.8753C8.89577 14.3095 8.73909 14.4568 7.7219 14.6663C7.47367 14.7172 7.34636 14.769 7.2832 14.8033ZM9.29608 13.5958C9.23359 13.5957 9.17319 13.5732 9.1258 13.5325C9.07841 13.4918 9.04716 13.4354 9.03768 13.3736C9.03112 13.3302 9.02674 13.2864 9.02456 13.2426C8.35781 13.2301 7.71452 12.944 7.2261 12.4344C6.60857 11.7901 6.32753 10.8975 6.45517 9.98543C6.59381 8.99498 6.54196 8.12069 6.51407 7.65098C6.50636 7.52039 6.50078 7.42605 6.50111 7.36075C6.5016 7.2779 6.50324 7.05822 7.23759 6.68597C7.49878 6.55357 8.02246 6.32257 8.59455 6.26334C9.54234 6.1654 10.1671 6.58753 10.3541 7.45214C10.8589 9.78642 10.3942 10.8189 10.0547 11.5729C9.99154 11.7133 9.93182 11.8459 9.88408 11.9744L9.84192 12.0876C9.6626 12.5684 9.50756 12.9838 9.55513 13.2941C9.56036 13.3281 9.55884 13.3627 9.55066 13.3961C9.54248 13.4295 9.52779 13.461 9.50746 13.4887C9.48712 13.5164 9.46151 13.5398 9.43211 13.5576C9.40271 13.5755 9.37009 13.5873 9.33611 13.5925L9.29608 13.5958ZM7.02628 7.43327L7.03645 7.62014C7.06532 8.10806 7.11913 9.01598 6.97345 10.0581C6.86828 10.8103 7.09797 11.5445 7.60394 12.0721C8.00376 12.4892 8.52991 12.7194 9.07066 12.7194H9.08181C9.14235 12.4642 9.24292 12.1949 9.35121 11.9046L9.39304 11.7921C9.44702 11.6471 9.51018 11.5066 9.57712 11.358C9.90377 10.6322 10.3105 9.72867 9.84208 7.56288C9.74938 7.13386 9.52446 6.88563 9.15482 6.80376C8.39554 6.63609 7.264 7.20719 7.02628 7.43327ZM8.6062 7.3222C8.59307 7.41473 8.77567 7.66181 9.01389 7.69479C9.25162 7.72809 9.45506 7.53482 9.46802 7.44229C9.48098 7.34976 9.29854 7.24771 9.06032 7.21457C8.8221 7.18143 8.61883 7.22967 8.6062 7.3222ZM9.06853 7.78584L9.00175 7.78125C8.8541 7.76074 8.7048 7.66772 8.60259 7.5322C8.56666 7.48462 8.50809 7.39242 8.51974 7.31006C8.53631 7.18931 8.68364 7.11696 8.91349 7.11696C8.96484 7.11696 9.01832 7.12073 9.07213 7.12828C9.19781 7.14567 9.31446 7.18193 9.40059 7.23C9.54989 7.31334 9.56088 7.40636 9.55415 7.45443C9.53578 7.58782 9.32364 7.78584 9.06853 7.78584ZM8.69299 7.33762C8.70037 7.39472 8.84179 7.58306 9.02587 7.60849L9.06869 7.61144C9.23866 7.61144 9.36564 7.47773 9.38057 7.43393C9.36482 7.40407 9.25556 7.32991 9.04835 7.30104C9.00372 7.29473 8.95872 7.2915 8.91365 7.29136C8.78043 7.29136 8.70972 7.32138 8.69299 7.33762ZM15.8469 7.13336C15.8599 7.22589 15.6775 7.47297 15.4394 7.50611C15.2015 7.53925 14.9979 7.34615 14.9848 7.25362C14.9723 7.16109 15.1548 7.05888 15.3926 7.0259C15.6305 6.9926 15.8338 7.041 15.8469 7.13336ZM15.3844 7.55336C15.1554 7.55336 14.9577 7.37519 14.9415 7.25953C14.9226 7.12073 15.1511 7.01524 15.3864 6.98259C15.4383 6.97537 15.4896 6.97176 15.539 6.97176C15.7421 6.97176 15.8766 7.03132 15.8901 7.12746C15.8988 7.18964 15.851 7.28561 15.7688 7.37224C15.7145 7.42917 15.6005 7.52777 15.4451 7.54926L15.3844 7.55336ZM15.5392 7.05904C15.4937 7.05904 15.4468 7.06238 15.3987 7.06905C15.1623 7.10203 15.0212 7.19686 15.0281 7.24772C15.036 7.30366 15.1869 7.46625 15.3846 7.46625L15.4333 7.4628C15.5624 7.44492 15.6594 7.36059 15.7057 7.31203C15.7784 7.23574 15.8072 7.16388 15.8038 7.13943C15.7992 7.10695 15.7119 7.05904 15.5392 7.05904ZM16.1897 12.4473C16.1422 12.4474 16.0957 12.4345 16.055 12.4101C16.0143 12.3857 15.9811 12.3507 15.9587 12.3089C15.9364 12.267 15.9259 12.2199 15.9283 12.1725C15.9307 12.1252 15.946 12.0793 15.9724 12.04C16.5299 11.2074 16.4279 10.3583 16.3293 9.53721C16.2871 9.18743 16.2438 8.82567 16.255 8.47851C16.2664 8.12135 16.3119 7.82669 16.3557 7.54172C16.4077 7.20408 16.4569 6.88514 16.4366 6.50648C16.4347 6.47216 16.4396 6.43781 16.4511 6.40539C16.4625 6.37297 16.4802 6.34312 16.5031 6.31755C16.5261 6.29197 16.5539 6.27116 16.5849 6.25631C16.6159 6.24147 16.6495 6.23287 16.6838 6.23102C16.7181 6.22917 16.7525 6.23409 16.7849 6.24551C16.8173 6.25694 16.8472 6.27463 16.8728 6.29759C16.9244 6.34396 16.9555 6.40895 16.9593 6.47826C16.9826 6.91106 16.927 7.272 16.8731 7.62129C16.8316 7.89084 16.7887 8.16958 16.7783 8.49525C16.7683 8.8027 16.8075 9.12918 16.849 9.4747C16.954 10.3478 17.073 11.3375 16.4075 12.3312C16.3835 12.3669 16.3511 12.3962 16.3131 12.4165C16.2751 12.4367 16.2327 12.4473 16.1897 12.4473Z" fill="white"/>
</g>
<defs>
<clipPath id="clip0_25_272">
<rect width="21" height="21" fill="white" transform="translate(0.0595703 0.5)"/>
</clipPath>
</defs>
</svg>
