<svg width="21" height="22" viewBox="0 0 21 22" fill="none" xmlns="http://www.w3.org/2000/svg">
<g clip-path="url(#clip0_25_284)">
<path d="M12.5098 0.541016L14.6523 0.555125C14.6927 0.586461 14.7253 0.606969 14.7599 0.622391C15.1483 0.797938 15.5693 0.923609 15.9192 1.15691C16.9338 1.8312 17.9245 2.54176 18.9147 3.25198C19.3749 3.58126 19.8285 3.92415 20.2528 4.29706C20.5681 4.574 20.7097 4.96693 20.7105 5.38595L20.7097 18.5718C20.7092 18.7557 20.6777 18.9449 20.6265 19.1217C20.3939 19.928 19.8779 20.4797 19.0659 20.6951C18.6377 20.8085 18.1854 20.8438 17.7413 20.8803C17.0485 20.9379 16.3532 20.9661 15.659 21.0078L14.3459 21.0898L12.2432 21.2135L10.9506 21.2943L8.82745 21.4173L7.7302 21.4623C7.69492 21.4641 7.66227 21.5135 7.62897 21.541C6.79389 21.541 5.95947 21.541 5.11734 21.5276C5.07698 21.4956 5.0463 21.4698 5.01037 21.4596C4.50144 21.3121 4.07472 21.0309 3.74659 20.6226C3.29214 20.0581 2.86033 19.4761 2.42326 18.8981C1.88612 18.1879 1.33504 17.4882 0.827429 16.7576C0.52907 16.3307 0.369264 15.8224 0.369695 15.3016C0.368264 11.4072 0.368756 7.51285 0.371171 3.6185C0.371171 3.50628 0.390859 3.39291 0.410218 3.28135C0.613984 2.08238 1.50156 1.4427 2.55714 1.32409C3.10511 1.26256 3.65685 1.235 4.20744 1.19858L5.66268 1.11458L6.28825 1.07356L8.17497 0.910812L9.22087 0.828781L10.9532 0.705734L12.4084 0.619766C12.4439 0.617305 12.4765 0.568578 12.5098 0.541016ZM4.25666 19.2333C4.34394 19.3467 4.44123 19.4543 4.51752 19.5749C4.88732 20.1535 5.41741 20.3637 6.09088 20.3189L10.6533 20.0472L15.7878 19.737L18.3442 19.5723C19.1019 19.5114 19.4677 19.1019 19.4825 18.3418V18.1777L19.4882 5.73146C19.4889 5.35658 19.3594 5.09441 19.0595 4.8849L15.4462 2.33865C14.8649 1.9157 14.2479 1.71833 13.5332 1.77477L9.48681 2.07402L5.2558 2.38606L2.60012 2.59311C2.06364 2.64233 1.73109 2.97045 1.63494 3.49677C1.61157 3.63111 1.6002 3.76728 1.60098 3.90364L1.58999 14.7715C1.58622 15.4835 1.80409 16.0758 2.23033 16.6205L4.25666 19.2333Z" fill="white"/>
<path d="M4.24705 19.2223L2.23023 16.6203C1.80399 16.0756 1.58612 15.4835 1.58989 14.7715L1.60088 3.90365C1.60088 3.7678 1.61106 3.62999 1.63485 3.49677C1.73099 2.97062 2.06354 2.6425 2.60002 2.59312L5.2557 2.38607L9.48688 2.07402L13.5332 1.77477C14.2478 1.71833 14.8648 1.9157 15.4461 2.33865C16.6375 3.20572 17.8513 4.04212 19.0594 4.8849C19.3593 5.09441 19.4888 5.35658 19.4881 5.73147L19.4824 18.1784V18.3425C19.4676 19.1019 19.1018 19.5114 18.3441 19.5723C17.4931 19.6409 16.6402 19.6851 15.7877 19.737L10.6532 20.0471L6.09078 20.3189C5.41731 20.3637 4.88722 20.1535 4.51742 19.5749C4.44113 19.4543 4.34385 19.3467 4.24705 19.2223ZM5.29803 11.6768V17.1709L5.29935 18.1956C5.3082 18.6552 5.5333 18.884 5.99267 18.9103C6.10801 18.9167 6.22466 18.9127 6.34065 18.9057L10.1866 18.679L17.5309 18.2591C17.9886 18.2335 18.2001 18.0329 18.2429 17.5792C18.2513 17.4977 18.2486 17.4152 18.2486 17.3331L18.2493 6.75489C18.2493 6.69337 18.2513 6.63184 18.2475 6.57032C18.2199 6.14933 18.0391 5.97756 17.6208 5.99987L13.8357 6.21791C12.0628 6.32105 10.2899 6.42485 8.5171 6.5293L5.85814 6.68894C5.51919 6.71059 5.36595 6.85677 5.31477 7.18818C5.30265 7.27607 5.29727 7.36476 5.29869 7.45347L5.29803 11.6768ZM14.6778 3.02624C14.3567 2.85201 14.0081 2.79426 13.6491 2.81411C13.0974 2.84429 12.5457 2.88974 11.9938 2.92961L4.12712 3.5012C3.88939 3.51843 3.65035 3.53565 3.41574 3.57815C3.33699 3.59226 3.23757 3.67166 3.21329 3.74352C3.19524 3.79405 3.27481 3.8961 3.33306 3.95188C3.44085 4.05491 3.56504 4.14137 3.68251 4.2344C3.96125 4.45424 4.25788 4.65472 4.51365 4.8977C4.99878 5.35839 5.56332 5.46487 6.21006 5.41811L11.3017 5.09884L16.7831 4.77006C16.8331 4.7676 16.8831 4.75218 16.9932 4.73167C16.8927 4.62716 16.8343 4.5471 16.7581 4.49066C16.4896 4.29234 16.2185 4.09752 15.9449 3.90627C15.5245 3.61009 15.1021 3.31674 14.6778 3.02624Z" fill="black"/>
<path d="M5.29796 11.6563L5.29862 7.45346C5.29862 7.36487 5.30124 7.27529 5.3147 7.18817C5.36588 6.85677 5.51912 6.71075 5.85807 6.68893L8.51703 6.5293L13.8356 6.21791L17.6205 5.99987C18.0391 5.97756 18.2199 6.14982 18.2472 6.57031C18.2512 6.63184 18.2492 6.69336 18.2492 6.75488L18.2486 17.3331L18.2428 17.5792C18.2 18.0329 17.9885 18.2335 17.5308 18.2591L10.1865 18.6789L6.34058 18.9057L5.99277 18.9103C5.53323 18.884 5.30813 18.6552 5.29927 18.1963L5.29796 17.1709V11.6563ZM12.8064 11.6671L10.6953 8.45063C10.6216 8.33841 10.5493 8.30134 10.4134 8.3161L9.51355 8.37681L7.85816 8.49805C7.45128 8.53529 7.20519 8.91788 7.3179 9.31459L8.19465 9.38956V16.4923L7.59746 16.6608C7.33266 16.7389 7.2193 16.962 7.30838 17.2472L9.32766 17.1312L10.123 17.0659C10.4659 17.0094 10.6505 16.7993 10.6966 16.4564L9.59246 16.2046V10.8622L9.67449 10.977L12.2122 14.9395C12.5852 15.5181 12.9683 16.0903 13.3613 16.6556C13.6414 17.0575 14.0541 17.1806 14.5181 17.0805C14.8085 17.0185 15.0872 16.9005 15.3717 16.8088C15.5199 16.7607 15.5704 16.6723 15.5697 16.5063L15.5648 9.20549C15.5648 8.77876 15.5648 8.77876 15.987 8.69361C16.4139 8.60764 16.5208 8.43718 16.4234 7.98092L13.8722 8.13596C13.5946 8.15581 13.3844 8.3878 13.3423 8.65768C13.3216 8.78778 13.3485 8.85948 13.5042 8.8685L14.2766 8.95381V13.9051C13.7874 13.1587 13.2973 12.413 12.8064 11.6677V11.6671ZM14.6917 3.03329C15.1105 3.3225 15.5281 3.61344 15.9445 3.9061C16.2181 4.09741 16.4893 4.29228 16.7579 4.49066C16.834 4.54709 16.8924 4.62716 16.993 4.73166L16.7828 4.77006L11.3015 5.09884L6.20982 5.4181C5.56309 5.46486 4.99855 5.35838 4.51341 4.8977C4.25764 4.65488 3.96102 4.45424 3.68211 4.23439C3.5648 4.14137 3.44061 4.05491 3.33282 3.95171C3.27458 3.89593 3.19501 3.79421 3.21305 3.74335C3.23734 3.67166 3.33741 3.59225 3.41551 3.57814C3.65012 3.53581 3.88916 3.51842 4.12688 3.5012L11.9937 2.9296L13.6491 2.8141C14.0079 2.79441 14.3565 2.85184 14.6917 3.03329Z" fill="white"/>
<path d="M12.8155 11.6792L14.2768 13.905V8.95362L13.5045 8.86831C13.3487 8.85945 13.3218 8.78776 13.3423 8.65765C13.3846 8.38777 13.5949 8.15579 13.8722 8.13594L16.4235 7.9809C16.521 8.43699 16.414 8.60762 15.9871 8.69342C15.5648 8.77808 15.5648 8.77808 15.5648 9.20546L15.5699 16.5062C15.5706 16.6723 15.52 16.7607 15.3719 16.8088L14.5183 17.0805C14.0543 17.1799 13.6415 17.0575 13.3616 16.6555C12.9688 16.0901 12.5857 15.518 12.2125 14.9394L9.67448 10.9768C9.65659 10.9486 9.63609 10.9224 9.59245 10.8622V16.2045L10.6968 16.4564C10.6506 16.7993 10.4661 17.0093 10.1232 17.0659C9.86167 17.1087 9.59327 17.1151 9.32781 17.1312L7.30853 17.2471C7.21945 16.962 7.33281 16.7389 7.59761 16.6608L8.1948 16.4923V9.38954L7.31805 9.31456C7.20534 8.91786 7.45143 8.53526 7.85831 8.49802C8.4089 8.44667 8.96195 8.41533 9.5137 8.37694C9.8136 8.35644 10.1148 8.34872 10.4136 8.31608C10.5494 8.30131 10.6219 8.33839 10.6954 8.45061L12.8155 11.6792Z" fill="black"/>
</g>
<defs>
<clipPath id="clip0_25_284">
<rect width="21" height="21" fill="white" transform="translate(0 0.5)"/>
</clipPath>
</defs>
</svg>
