<svg width="21" height="22" viewBox="0 0 21 22" fill="none" xmlns="http://www.w3.org/2000/svg">
<path d="M17.7225 3.125H10.1399C10.1399 5.015 11.6696 6.54537 13.5601 6.54537H14.9546V7.89495C14.9546 9.78495 16.485 11.3153 18.375 11.3153V3.77748C18.3749 3.60447 18.3061 3.43858 18.1838 3.31625C18.0614 3.19392 17.8955 3.12513 17.7225 3.125Z" fill="#2684FF"/>
<path d="M13.9651 6.90501H6.38232C6.38232 8.79485 7.91221 10.3252 9.80204 10.3252H11.1972V11.6748C11.1972 13.5648 12.7276 15.0952 14.6176 15.0952V7.55732C14.6173 7.38435 14.5485 7.21855 14.4262 7.09624C14.3039 6.97393 14.1381 6.90527 13.9651 6.90501Z" fill="url(#paint0_linear_25_301)"/>
<path d="M10.2078 10.6847H2.625C2.625 12.5753 4.15472 14.1051 6.04537 14.1051H7.43991V15.4553C7.43991 17.3453 8.97028 18.875 10.8601 18.875V11.3378C10.8599 11.1648 10.7912 10.9989 10.6689 10.8765C10.5466 10.7541 10.3808 10.685 10.2078 10.6847Z" fill="url(#paint1_linear_25_301)"/>
<defs>
<linearGradient id="paint0_linear_25_301" x1="14.4598" y1="6.91354" x2="11.2337" y2="10.2401" gradientUnits="userSpaceOnUse">
<stop offset="0.176" stop-color="#0052CC"/>
<stop offset="1" stop-color="#2684FF"/>
</linearGradient>
<linearGradient id="paint1_linear_25_301" x1="10.9207" y1="10.7139" x2="7.19053" y2="14.343" gradientUnits="userSpaceOnUse">
<stop offset="0.176" stop-color="#0052CC"/>
<stop offset="1" stop-color="#2684FF"/>
</linearGradient>
</defs>
</svg>
