<svg width="21" height="21" viewBox="0 0 21 21" fill="none" xmlns="http://www.w3.org/2000/svg">
<g clip-path="url(#clip0_40_155)">
<path d="M17.8654 10.1193C17.8654 14.2799 14.5679 17.6527 10.5003 17.6527C6.43267 17.6527 3.13501 14.2799 3.13501 10.1193C3.13501 5.9587 6.43267 2.58557 10.5003 2.58557C14.5679 2.58557 17.8654 5.9587 17.8654 10.1193Z" fill="#D33833"/>
<path d="M3.43517 11.985C3.43517 11.985 2.90196 4.1289 10.1407 3.90463L9.63574 3.06299L5.7076 4.38156L4.58541 5.67224L3.60333 7.55223L3.04224 9.74066L3.2104 11.1997" fill="#EF3D3A"/>
<path d="M5.45562 4.98011C4.16346 6.30245 3.36382 8.12781 3.36382 10.1474C3.36382 12.1665 4.16346 13.9924 5.45562 15.3144C6.74843 16.6363 8.53015 17.4521 10.5 17.4521C12.4699 17.4521 14.2517 16.6363 15.5445 15.3144C16.8366 13.9924 17.6364 12.1665 17.6364 10.1474C17.6364 8.12781 16.8366 6.30229 15.5445 4.98011C14.2517 3.65858 12.4699 2.8427 10.5 2.84254C8.53031 2.8427 6.74843 3.65842 5.45562 4.98027V4.98011ZM5.12864 15.6342C3.75544 14.2296 2.90625 12.2886 2.90625 10.1474C2.90625 8.00591 3.75544 6.06505 5.12864 4.66051C6.50184 3.25565 8.40234 2.38497 10.5 2.38513C12.5981 2.3848 14.4989 3.25565 15.8716 4.66051C17.2451 6.06505 18.0943 8.00608 18.0942 10.1474C18.0942 12.2884 17.2451 14.2296 15.8716 15.6342C14.4989 17.0389 12.5981 17.9097 10.5002 17.9097C8.40234 17.9097 6.50152 17.0389 5.12864 15.6342Z" fill="#231F20"/>
<path d="M13.6004 10.161L12.478 10.3294L10.9629 10.4977L9.98085 10.5258L9.02682 10.4979L8.2974 10.2733L7.65198 9.5719L7.147 8.14094L7.03478 7.83234L6.3613 7.60791L5.96854 6.96248L5.68799 6.03651L5.99659 5.22276L6.72601 4.97044L7.31532 5.25098L7.59587 5.86819L7.93269 5.81208L8.04475 5.6718L7.93269 5.02655L7.90447 4.2128L8.0728 3.09061L8.06624 2.44945L8.57795 1.6316L9.4757 0.986179L11.0471 0.312866L12.7866 0.565358L14.3018 1.65966L15.0033 2.78184L15.4522 3.59559L15.5644 5.61569L15.2276 7.35541L14.6104 8.89842L14.0212 9.71217" fill="#F0D6B7"/>
<path d="M14.442 9.3475L13.7689 10.021V12.6302L13.1815 15.0354L12.8992 15.0431L13.1235 17.7367L14.1895 17.5964L13.9372 15.015L13.4611 15.028L14.7511 14.9588C14.7511 14.9588 15.3962 13.3314 15.3962 13.2473C15.3962 13.1631 15.9576 10.8905 15.9576 10.8905L14.6947 9.57193L14.4422 9.34717L14.442 9.3475ZM7.6802 9.76815L6.97883 10.0489L4.73413 11.592L4.87457 12.0411L5.51999 13.9488L5.80037 17.1196L5.99676 17.456L8.80239 18.4103L8.97105 18.2134L8.63422 15.8567V15.1835L12.6464 15.015L12.9548 14.8467L10.5142 13.6963L10.9631 12.8268L10.3178 13.051L10.0652 12.7424L9.72852 11.2834L9.44781 11.1993L8.83061 11.0027L8.2974 10.526L7.6802 9.76815Z" fill="#335061"/>
<path d="M5.99674 5.22288L6.72616 4.97022L7.31547 5.25093L7.59602 5.86814L7.93284 5.81203L8.01701 5.47537L7.84868 4.83011L8.01701 3.28678L7.87657 2.44514L8.38172 1.85582L9.47601 0.986128L9.16725 0.565308L7.62408 1.32278L6.97882 1.82793L6.61394 2.61346L6.05285 3.37094L5.88452 4.26885L5.99674 5.22288Z" fill="#6D6B6D"/>
<path d="M9.75279 0.659684C9.56051 0.657716 9.33558 0.677403 9.33558 0.677403L7.51202 1.3791L6.81033 2.08063L6.50172 2.64172L7.14715 2.58561C7.14715 2.58561 7.56797 1.54743 9.25141 1.04244C10.3035 0.726786 10.0734 0.66313 9.75279 0.659684ZM7.87673 2.44518L6.33356 2.80989L5.88452 4.2689L5.99674 5.22275L6.30518 5.0267C6.30518 5.0267 5.71603 3.06222 7.96057 2.78167L7.87673 2.44518Z" fill="#DCD9D8"/>
<path d="M11.4821 0.0779577C11.266 0.0817338 11.0522 0.123265 10.8504 0.200676C9.16716 0.845934 7.93259 2.02423 7.96048 2.78171C8.00838 4.0719 7.9887 4.07288 7.9887 4.07288C7.9887 4.07288 8.46579 1.60357 10.879 1.12648C12.8655 0.73388 13.9089 1.21048 14.3018 1.65936C14.3018 1.65936 12.9483 0.0482624 11.4822 0.0777937L11.4821 0.0779577ZM14.489 1.94007C14.3996 1.93957 13.683 1.95779 13.6566 2.64176C13.6566 2.64176 13.6566 2.75382 13.7127 2.86604C13.7127 2.86604 14.3581 2.13645 14.7509 2.52922L14.4984 1.94023C14.4984 1.94023 14.4951 1.94007 14.489 1.94007ZM10.3571 2.26983C10.2193 2.27311 10.0493 2.3307 9.84047 2.47327C9.22327 2.89409 9.27937 3.4834 9.39159 3.59562C9.50381 3.70784 9.47346 3.93359 9.55894 3.77855C9.64425 3.62351 9.6162 3.11869 9.9248 2.97842C10.2334 2.83815 10.7395 2.68114 10.9354 2.942C10.9354 2.942 10.8498 2.25851 10.3571 2.27V2.26983ZM14.6944 3.98855C14.6944 3.98855 14.2321 4.086 14.1894 4.49354C14.1468 4.90107 14.6946 4.57754 14.7788 4.54948L14.6944 3.98855ZM11.2995 4.01661C11.2995 4.01661 10.6823 4.10077 10.6823 4.49354C10.6823 4.8863 11.3838 4.85825 11.5802 4.68992L11.2995 4.01661ZM6.30525 5.0269L5.66016 5.69989L5.77237 6.54169L6.1087 7.41122L6.47374 7.52377C5.94054 6.87851 6.19303 6.42931 6.30525 5.81211C6.4173 5.19474 7.48371 5.84033 7.48371 5.84033L7.45549 5.41918L7.03484 5.08285L6.30525 5.0269ZM12.6395 6.3143C12.4548 6.3061 12.3843 6.91067 12.3692 7.06669C12.42 6.91576 12.8894 6.61224 12.8894 6.61224C12.8894 6.61224 12.8894 6.38321 12.6604 6.31791C12.6536 6.31596 12.6466 6.31475 12.6395 6.3143ZM12.3692 7.06669C12.3647 7.07823 12.3635 7.0908 12.3659 7.10295C12.3659 7.10295 12.3669 7.08966 12.3692 7.06669ZM7.57066 7.28014L7.20316 7.63615L7.28733 8.87072L8.18524 10.2736C8.18524 10.2736 9.19308 10.501 9.08299 10.4141C7.87664 9.46004 7.79248 7.69226 7.76442 7.49572C7.73653 7.2995 7.57066 7.28014 7.57066 7.28014ZM10.7279 7.69833C10.6171 7.69997 10.5438 7.73574 10.5231 7.7633C10.4531 7.85682 10.5981 8.36574 10.5981 8.36574L10.7384 8.39396C10.7105 7.8327 11.047 7.77643 11.047 7.77643C10.9226 7.71671 10.814 7.69702 10.7279 7.69833Z" fill="#F7E4CD"/>
<path d="M7.48382 9.74034L4.73413 11.592L5.04273 12.462L5.77248 15.6041L5.80037 17.2598L6.19314 17.3999C6.75423 16.053 5.66026 11.7042 5.66026 11.7042L8.2974 10.5259L7.48382 9.74034ZM8.56893 12.931L8.49379 13.1071C8.49379 13.1071 8.43784 13.6121 8.43784 13.7523C8.43784 13.8928 8.49379 15.0714 8.49379 15.0714H8.94283V13.3876L8.56876 12.9309L8.56893 12.931ZM8.57812 15.3237L7.31565 15.3798L7.6802 15.6325L8.57812 15.7728V15.3237ZM14.442 9.34741L13.9092 9.93656L15.8732 11.3957L15.9293 10.7224L14.442 9.34741ZM13.8809 14.8468L12.8992 15.043L13.0393 15.8289C13.404 15.9972 14.0214 15.5482 14.0214 15.5482L13.8809 14.8468Z" fill="#49728B"/>
<path d="M8.29736 10.2736V10.5259L8.65404 10.9188L9.77622 11.4238L9.80444 10.5823L9.02695 10.4977L8.29736 10.2736ZM16.5102 14.2577L15.6123 14.5384L14.7509 14.9589L14.2934 14.8752L13.937 15.0151L14.2376 17.3724L15.3315 17.0634L17.4079 16.9512L17.7165 15.9974L17.1554 14.342L16.5102 14.2577ZM12.8992 15.043L11.2634 15.0433L8.63418 15.1835L8.68193 16.4745L8.971 18.2135L9.55179 20.5709L10.8423 20.8513L12.9748 20.683L13.0027 20.262L12.75 17.9894L12.8992 15.043ZM13.1152 14.8189L12.4979 13.2477L11.8524 12.3217C11.8524 12.3217 11.9927 11.929 12.1893 11.929H12.8345L13.4517 12.1534L13.3958 13.1916L13.1152 14.8189Z" fill="white"/>
<path d="M8.55023 10.6664L8.46606 10.7788L8.94316 11.1153L9.72853 11.2834L9.70063 10.9471C9.42009 11.0313 8.55023 10.6664 8.55023 10.6664ZM12.45 11.8727L11.8049 11.9567L12.8992 14.5381L13.1235 14.5663L13.2357 14.2858C13.2357 14.2858 12.4498 12.7705 12.4498 12.546C12.4498 12.546 12.5903 12.2094 12.7866 12.2934C12.9832 12.3777 13.4042 12.6022 13.4042 12.6022V12.0691L12.45 11.8727ZM15.1157 14.8188L14.751 14.9589L15.0596 16.5021C14.9474 16.474 14.2179 16.811 14.2179 16.811L14.3016 17.2599L14.6107 17.1475L15.5924 17.0074L15.8732 17.3721L16.7148 17.4L17.2199 17.2878L17.6688 16.6146L17.6406 16.1093L17.3322 15.2114C17.4163 15.8847 17.0795 16.5303 17.0795 16.5303C16.9392 16.5303 15.3682 16.446 15.3682 16.446C15.3682 16.2776 15.1157 14.8188 15.1157 14.8188ZM12.955 14.8467L12.5342 15.0152C12.5342 15.0152 12.394 17.9334 12.8149 20.0096C12.8149 20.0096 11.9732 20.5426 10.7385 20.6827L13.0953 20.5986L13.376 20.4302L13.0393 15.8288L12.955 14.8467ZM13.6883 17.8485C13.5676 17.8492 13.3881 17.9348 13.2613 17.9265C13.2427 18.3696 13.3049 19.0803 13.3258 19.5453C13.6204 19.5456 13.7466 19.481 13.9666 19.4068C13.9914 18.8597 13.7932 18.3532 13.7362 17.8536C13.7207 17.8496 13.7044 17.8479 13.6883 17.8485Z" fill="#DCD9D8"/>
<path d="M13.9086 10.4702C13.549 10.4869 13.064 10.9454 12.8381 11.0258C12.8673 11.1098 12.9152 11.1763 12.9188 11.2834C13.0771 11.2444 13.2699 11.2711 13.4072 11.3385C13.2484 11.3563 13.0729 11.3553 12.9679 11.4309C12.9293 11.542 12.9769 11.6934 12.9511 11.8476C13.3278 11.9539 13.7582 12.0107 14.2341 12.0247C14.327 11.9044 14.3585 11.6747 14.3473 11.4475C14.3342 11.1735 14.2622 10.6101 14.093 10.5115C14.0372 10.4792 13.9752 10.4672 13.9086 10.4702ZM10.2115 10.5929C9.83018 10.6011 9.86988 11.2668 9.88842 11.6744C9.90401 12.0186 10.0833 12.3828 10.1608 12.6117C10.1975 12.7183 10.2057 12.8318 10.2969 12.8528C10.4584 12.8906 10.9909 12.6778 11.1427 12.5951C11.4634 12.4202 11.7125 12.1423 11.9848 11.9557L11.995 11.6837C11.8313 11.602 11.6423 11.5439 11.4016 11.5334C11.5648 11.4514 11.8047 11.4526 11.9533 11.3549L11.9576 11.2463C11.6862 11.2255 11.5827 11.1046 11.4039 11.0066C11.1112 10.8468 10.6715 10.6724 10.2935 10.6003C10.2665 10.5949 10.239 10.5925 10.2115 10.5929ZM12.4148 11.16C12.3423 11.1607 12.2558 11.1881 12.1572 11.2541C12.1385 11.4606 12.1868 11.528 12.2283 11.7651C12.8014 11.9444 12.8066 11.1574 12.4148 11.16Z" fill="#D33833"/>
<path d="M13.8726 10.2738L12.8065 10.891L12.7501 11.1994V11.8166L13.1429 11.9571C13.1429 11.9571 12.9465 11.6765 13.0869 11.5924C13.2272 11.5082 13.3676 11.5924 13.4518 11.4521C13.5359 11.3117 13.4518 11.2275 13.4797 11.0592C13.5077 10.8908 13.648 10.863 13.7883 10.8349C13.9286 10.807 14.3215 10.7507 14.3776 10.891L14.2093 10.386L13.8726 10.2738ZM10.3394 10.4428C10.2004 10.4398 10.0737 10.4628 9.98088 10.526C9.32118 10.9747 9.85291 12.0117 10.1761 12.6217C10.1487 12.271 10.1193 11.9205 10.0878 11.5702C10.0285 10.9173 10.2449 11.0313 10.811 11.0313C10.8977 11.0313 11.3434 11.1343 11.3754 11.1996C11.5285 11.5121 11.1195 11.4426 11.5516 11.6783C11.9165 11.8772 12.5609 11.5574 12.4136 11.1153C12.3311 11.0168 11.9838 11.0846 11.8592 11.0201L11.2017 10.6792C11.01 10.5796 10.6452 10.4492 10.3394 10.4428ZM10.1759 12.6215L10.1968 12.8831L10.2972 12.853C10.2637 12.7866 10.2219 12.7082 10.1761 12.6217L10.1759 12.6215Z" fill="#EF3D3A"/>
<path d="M11.0849 0.000924452C10.4959 0.0120807 9.91985 0.110026 9.43981 0.286721C9.08297 0.417971 8.73729 0.53544 8.42393 0.719518C7.58541 1.21171 6.6952 1.54114 6.44665 2.53192C5.83404 2.80623 5.64931 3.59028 5.68015 4.50017C5.68606 4.67753 5.78236 4.89917 5.74906 5.06603C5.73199 5.15068 5.61715 5.25913 5.59418 5.31425C5.30051 6.01431 5.53594 6.93453 5.87522 7.43213C6.0803 7.7327 6.41991 7.9993 6.8678 8.07001C6.88568 8.33825 6.95016 8.56909 7.07402 8.84094C7.15245 9.01288 7.4453 9.32197 7.33751 9.54132C7.28337 9.6519 6.80644 9.89192 6.64828 9.98692C6.11426 10.3072 5.72723 10.5035 5.23423 10.8584C4.91529 11.0881 4.41638 11.1176 4.49513 11.6472C4.54812 12.0046 4.75156 12.4475 4.86788 12.8058C4.99388 13.1925 5.17434 13.5467 5.27803 13.948C5.50854 14.8423 5.55661 15.685 5.61272 16.5584C5.6347 16.9005 5.59828 17.2624 5.68704 17.4513C5.77859 17.6465 6.11787 17.7088 6.36298 17.8227C7.07091 18.15 7.82198 18.6499 8.75041 18.5507C8.97173 19.2948 9.18091 20.0874 9.44653 20.7392C10.3986 21.0815 11.9016 21.028 12.8914 20.909C13.1922 20.8726 13.5097 20.7242 13.5804 20.4633C13.5593 20.3025 13.5358 20.1434 13.546 19.9532C13.8554 19.8892 14.2765 19.8364 14.3446 19.4938C14.4401 19.0135 14.0413 18.3252 14.1743 17.7981C14.3535 17.74 14.5448 17.6946 14.5162 17.4117C14.8181 17.2546 15.1763 17.2194 15.5585 17.2342C15.6077 17.3294 15.6778 17.4209 15.7408 17.4733C16.2763 17.5809 16.7949 17.5897 17.2395 17.4447C17.7427 17.2803 17.9827 16.2512 17.8677 15.7614C17.786 15.4144 17.6013 14.846 17.4438 14.51C17.017 13.5978 15.7452 14.1703 15.0645 14.5086C15.3948 13.6399 15.6788 12.7392 15.9701 11.7647C16.0571 11.4727 16.229 11.0587 16.1905 10.7562C16.1544 10.4717 15.7108 10.1728 15.4773 9.94738C15.3475 9.82236 14.7425 9.36299 14.7074 9.19105C14.6734 9.02469 14.9541 8.64784 15.0443 8.45933C15.174 8.18961 15.2668 7.85952 15.3306 7.63492C15.8064 5.96213 15.8548 3.66395 15.1746 2.28878C14.917 1.76788 14.1968 1.04846 13.7464 0.707706C13.0823 0.205674 12.0661 -0.0174505 11.0849 0.000924452ZM11.1633 0.466862C11.9585 0.459151 12.8428 0.739698 13.4416 1.0775C13.942 1.35969 14.3111 1.90569 14.6632 2.35998C14.1696 2.21347 13.7494 2.46531 13.826 2.87251C14.2393 2.49369 14.9453 2.86841 15.1541 3.28726C15.3538 3.68757 15.3525 4.28099 15.3831 4.87621C15.4575 6.31963 15.119 7.80882 14.3937 8.8521C14.1998 9.13067 14.037 9.43517 13.7643 9.62696C13.1071 10.0885 12.1081 10.5068 11.2527 10.2199C10.1223 9.84057 9.60879 9.08736 8.98699 8.22489C9.00389 8.6987 9.3371 9.08753 9.66621 9.44994C9.9525 9.76576 10.298 10.1226 10.6698 10.2699C10.3597 10.1971 9.88359 10.1743 9.75431 10.4527C9.0308 10.4046 8.35847 10.3306 8.01624 9.84024C7.74652 9.45371 7.47253 8.79631 7.34965 8.28854C7.32455 8.1842 7.28156 7.96206 7.29206 7.90513C7.33242 7.68479 7.72486 7.58799 7.57048 7.28005C7.28567 7.27742 7.22152 7.53927 6.96016 7.56519C6.28341 7.63213 5.80599 6.66826 5.83666 6.08666C5.86275 5.59217 6.28078 5.11902 6.85254 5.18153C7.25663 5.22582 7.39395 5.66682 7.47237 6.05926C7.70534 6.07173 8.04183 6.04925 8.15208 5.86747C8.13616 5.42401 7.93027 5.06832 7.94438 4.66079C7.97095 3.89495 8.38816 3.20392 8.06627 2.44956C8.41081 1.66796 9.42159 1.05109 10.1692 0.678174C10.4588 0.533799 10.8019 0.470799 11.1634 0.46719L11.1633 0.466862ZM9.10627 0.851753C9.13875 0.857003 9.16861 0.882268 9.19749 0.913112C9.19256 1.04617 9.06131 1.04338 8.97272 1.08603C8.83491 1.25551 8.63344 1.33475 8.46577 1.52047C8.29367 1.71078 8.10122 2.222 7.87317 2.27844C7.75882 2.30699 7.62823 2.25875 7.52864 2.26531C7.26532 2.28189 7.07993 2.41674 6.81284 2.45546C7.1577 1.7016 8.23345 1.09161 9.07263 0.853885C9.08358 0.850854 9.09503 0.850128 9.10627 0.851753ZM10.5402 2.48795C10.1075 2.48844 9.61486 2.95093 9.4864 3.30383C9.43423 3.44722 9.35187 3.72875 9.55875 3.77879C9.79057 3.26216 10.1705 2.76407 10.9352 2.94207C11.0821 2.70074 10.8196 2.52339 10.6256 2.49418C10.5973 2.48997 10.5688 2.48789 10.5402 2.48795ZM7.80755 2.5667C8.10319 3.31909 7.59542 4.21323 7.78458 5.036C7.84249 5.288 8.04281 5.67913 7.72289 5.68766C7.73126 4.97071 6.84188 4.51576 6.17168 4.93724C6.12689 4.39353 6.04929 3.62917 6.42007 3.22131C6.76214 2.84462 7.23366 2.61017 7.80755 2.5667ZM14.6614 3.81308C14.637 4.22603 14.7904 4.47458 14.8969 4.76661C14.7128 4.88244 14.3546 4.81025 14.1471 4.90098C14.1323 5.51178 15.0921 5.21073 15.2381 4.87063C15.0199 4.55366 14.8704 4.17336 14.6975 3.81456L14.6614 3.81308ZM11.3269 3.82243C11.2133 4.14465 11.5218 4.69164 11.6947 4.96825C11.4694 5.18694 11.0644 5.00532 10.763 4.99121C10.4754 5.4455 11.3246 5.53098 11.6889 5.42335C11.7887 5.39399 11.9613 5.24453 11.9851 5.17726C12.0863 4.89294 11.8822 4.76825 11.7772 4.66588C11.5442 4.43882 11.4908 4.12283 11.3269 3.82243ZM13.0575 4.11939C13.0356 4.11643 13.0091 4.12431 12.9775 4.14728C12.957 4.90459 13.5197 5.53147 13.9394 6.03728C14.1445 6.28419 14.3915 6.42528 14.164 6.80886C13.7971 6.94831 13.2034 7.34781 12.6933 7.26053C12.4226 7.21426 12.4837 6.90697 12.3865 6.73996C12.1998 6.98556 12.273 7.35716 12.4653 7.52417C13.3642 7.6131 13.976 7.22985 14.5246 6.87728C14.5028 6.73913 14.6906 6.49009 14.6385 6.28239C14.6204 6.21085 14.4577 6.10717 14.3589 5.99905C13.9564 5.56018 13.405 4.90442 13.1858 4.39157C13.1662 4.34563 13.1529 4.13202 13.0575 4.11939ZM6.66239 5.53606C6.45452 5.53278 6.26618 5.66978 6.22172 5.99265C6.31392 5.93228 6.38824 5.7605 6.55444 5.84221C6.40842 6.12718 6.44353 6.68221 6.64221 6.86267C6.64106 6.52438 6.5884 5.94606 6.87682 5.96361C7.07878 5.97575 7.11963 6.40822 7.29157 6.50633C7.41019 5.93572 7.00906 5.54131 6.66239 5.53606ZM14.8739 7.23575C14.4353 7.43591 14.0815 7.72745 13.5086 7.78241C13.4808 7.87707 13.4926 8.11595 13.5079 8.27296C14.2572 8.25737 14.6186 7.72187 14.8739 7.23575ZM11.2835 7.55092C11.5026 8.13711 12.4899 8.34383 13.325 8.30216C13.3237 8.12858 13.3245 7.95271 13.2897 7.8103C12.64 7.82933 11.7615 7.8021 11.2835 7.55092ZM11.1928 8.01981C10.7707 8.0203 11.1267 8.25507 11.1982 8.34695C11.3462 8.53726 11.5198 8.86194 11.7902 9.00566C12.2164 9.23206 13.063 9.13707 13.3701 9.01222C13.4836 8.96628 13.5752 8.83881 13.6173 8.73118C12.6592 8.75415 11.5234 8.84964 11.1928 8.01981ZM14.3815 9.63254C14.7097 9.89685 14.9078 10.1456 15.2225 10.4282C15.3931 10.5813 15.7291 10.7647 15.7631 11.0123C15.782 11.1504 15.6973 11.4889 15.6661 11.6443C15.5283 12.3258 15.2183 13.2262 14.9229 13.9403C14.8156 14.1999 14.7129 14.5244 14.5714 14.5805C14.1835 14.7341 13.7128 14.5656 13.3832 14.7708C13.8262 14.0022 14.3085 13.276 14.7426 12.4982C14.6765 12.344 14.5144 12.2782 14.4673 12.1064C14.7722 11.5307 14.6321 9.74345 13.8541 10.1208C13.9628 9.96099 14.2485 9.82909 14.3815 9.63254ZM7.53619 10.0394C7.6069 10.0115 8.12304 10.683 8.19933 10.7375C8.61769 11.0345 9.13711 11.2691 9.6229 11.5009C9.65259 11.7238 9.72134 12.0128 9.84241 12.3993C9.9758 12.8262 10.0859 13.4286 10.6499 13.1208C10.5963 13.3646 10.2829 13.5159 10.3694 13.8002C10.4235 13.9786 11.0158 14.1989 11.2035 14.3049C11.5498 14.5001 11.8658 14.6081 12.1319 14.7223C10.9228 14.7554 9.78729 14.8538 8.66986 15.0059C8.53599 14.7985 8.58996 14.4789 8.57585 14.1487C8.56043 13.79 8.70956 12.9815 8.56863 12.9313C8.40933 12.8747 8.37947 13.1976 8.37373 13.2688C8.34387 13.6475 8.55403 14.4493 8.34682 14.9026C8.12009 14.8384 8.00836 14.6679 7.7959 14.5905C7.71256 14.853 7.96849 14.8656 7.94224 15.0323C7.90746 15.2527 7.48992 15.0684 7.49222 15.3961C7.76407 15.4397 8.18112 15.3116 8.47167 15.4341C8.54763 16.3255 8.6697 17.1701 8.80341 18.1169C7.64709 18.0568 6.89864 17.4823 6.04634 17.0838C5.99334 15.1987 5.69295 13.2431 4.94909 11.6467C5.72937 11.0446 6.60251 10.4077 7.53635 10.0396L7.53619 10.0394ZM13.9481 10.4702C13.9999 10.4727 14.0486 10.4857 14.0931 10.5116C14.2624 10.6104 14.3344 11.1737 14.3476 11.4477C14.3586 11.675 14.3269 11.9043 14.2344 12.0247C13.7583 12.0108 13.3281 11.9542 12.9514 11.8479C12.9772 11.6937 12.9293 11.5419 12.9678 11.4307C13.0726 11.3552 13.2485 11.3565 13.4072 11.3388C13.27 11.2712 13.0774 11.2445 12.9191 11.2835C12.9153 11.1762 12.8672 11.1099 12.8382 11.0259C13.0723 10.9424 13.5853 10.4524 13.9481 10.4702ZM13.095 10.4911C12.8951 10.6213 12.725 10.7843 12.5332 10.9234C12.1078 10.9446 11.8756 10.894 11.5631 10.6497C11.568 10.63 11.5995 10.6389 11.6008 10.6148C12.0561 10.8177 12.6353 10.5321 13.095 10.4911ZM8.60834 10.4991C8.84574 10.664 9.30511 10.6233 9.65473 10.6847C9.67277 10.7967 9.58221 10.9439 9.58385 11.0999C9.28969 11.0819 8.36536 10.7455 8.60834 10.4991ZM10.2116 10.5931C10.2369 10.5925 10.2643 10.5949 10.2936 10.6005C10.6716 10.6727 11.1113 10.8469 11.404 11.0069C11.5828 11.1047 11.6863 11.2254 11.9577 11.2464L11.9536 11.355C11.8049 11.4527 11.5649 11.4515 11.4018 11.5335C11.6423 11.544 11.8317 11.6019 11.9954 11.6837L11.9847 11.9558C11.7122 12.1424 11.4634 12.4201 11.1426 12.595C10.9909 12.6777 10.4585 12.8907 10.2972 12.8529C10.2058 12.8318 10.1976 12.7184 10.161 12.6118C10.0834 12.3829 9.90443 12.0188 9.88868 11.6746C9.87014 11.2669 9.83027 10.6008 10.2116 10.5931ZM12.3926 11.1613C12.415 11.1595 12.4364 11.1601 12.4566 11.1631C12.8054 11.2144 12.7801 11.9378 12.2282 11.7652C12.1867 11.5283 12.1386 11.4607 12.1572 11.2541C12.2461 11.1949 12.3248 11.1667 12.3926 11.1613ZM12.7102 11.9839C12.9101 12.0052 13.0682 12.2808 13.3534 12.2628C13.3076 13.0063 13.3315 13.7525 13.124 14.4337C12.7373 13.7246 12.5097 12.8685 12.0092 12.2653C12.062 12.2091 12.1093 12.147 12.1611 12.0895C12.3878 12.1844 12.5358 11.9652 12.7102 11.9839ZM13.86 12.2205C14.1353 12.2183 14.3607 12.3983 14.4846 12.5973C14.0967 13.2618 13.7256 13.9439 13.2656 14.53C13.4584 13.9626 13.541 13.0132 13.5702 12.2894C13.6606 12.2456 13.7595 12.222 13.86 12.2205ZM11.7649 12.4736C12.2243 13.0567 12.5038 13.8066 12.8116 14.5305C12.0845 14.3113 11.3416 13.9556 10.7044 13.595C10.8294 13.0529 11.3196 12.772 11.7649 12.4736ZM16.6065 14.3977C16.8062 14.4027 17.0046 14.5648 17.0914 14.6962C17.2482 14.9331 17.3947 15.6305 17.4769 16.0008C17.5995 16.5519 17.324 17.0884 16.8858 17.1947C16.5668 17.2721 16.0776 17.2926 15.8688 17.1917C16.1244 17.0521 16.5084 17.0513 16.8042 16.9555C16.3805 16.773 15.7534 16.945 15.2438 16.9131C15.1823 16.284 15.1359 15.6018 14.9868 15.1052C15.2842 14.789 16.0028 14.7131 16.4108 14.452C16.4691 14.4147 16.5373 14.3958 16.6065 14.3977ZM16.5719 14.9848C16.0497 15.0002 15.6417 15.1385 15.4087 15.4668C15.8325 15.4938 16.1377 15.0717 16.5719 14.9848ZM14.5146 15.1135C14.5517 15.115 14.5878 15.1195 14.6229 15.1272C14.9005 15.6046 14.9602 16.3985 14.951 16.9747C14.7779 17.0081 14.6655 17.1072 14.4555 17.1007C14.4019 16.4443 14.2495 15.754 14.1868 15.1286C14.2869 15.1267 14.4035 15.1089 14.5146 15.1135ZM11.2985 15.1206C11.8464 15.1117 12.378 15.1439 12.8382 15.2397C12.9506 15.9703 12.9087 16.6908 12.9908 17.407C13.0994 18.3598 13.018 19.4469 13.2041 20.3398C12.1913 20.6536 10.8104 20.6233 9.66457 20.2754C9.14827 18.6934 8.86674 17.1917 8.67249 15.4052C9.42504 15.2645 10.3848 15.1354 11.2985 15.1206ZM13.7305 15.1836C13.9115 15.8377 13.9007 16.67 13.9896 17.4094C13.7159 17.4695 13.5158 17.4988 13.2213 17.5431C13.1627 16.775 13.1179 16.0182 13.1284 15.251C13.3371 15.1811 13.5212 15.1854 13.7305 15.1836ZM16.1071 15.5603C15.9004 15.5629 15.7144 15.6079 15.6346 15.7296C15.9939 15.7591 16.4093 15.7017 16.7634 15.6643C16.602 15.6085 16.3414 15.5572 16.1071 15.5603ZM16.0479 16.0918C15.8629 16.0941 15.6996 16.1293 15.6158 16.2193C15.9938 16.251 16.4883 16.2589 16.8861 16.2503C16.7248 16.1752 16.3564 16.0879 16.0479 16.0918ZM13.6332 17.8532C13.672 17.8472 13.7071 17.8458 13.7361 17.8535C13.7932 18.3531 13.9912 18.8594 13.9665 19.4066C13.7466 19.4807 13.6203 19.5457 13.3255 19.5452C13.3048 19.0802 13.2424 18.3695 13.2611 17.9262C13.3698 17.9334 13.5173 17.8714 13.6332 17.8532Z" fill="#231F20"/>
<path d="M13.86 12.2204C13.7595 12.2219 13.6606 12.2454 13.5701 12.2893C13.5409 13.0131 13.4585 13.9625 13.2656 14.5297C13.7258 13.9438 14.0967 13.2615 14.4846 12.5972C14.3606 12.3982 14.1353 12.2182 13.86 12.2204ZM11.7649 12.4737C11.3197 12.7723 10.8298 13.0531 10.7046 13.5952C11.3418 13.9558 12.0847 14.3113 12.8118 14.5305C12.504 13.807 12.2245 13.0569 11.7649 12.4737Z" fill="#81B0C4"/>
<path d="M13.0951 10.491C12.8953 10.6214 12.7251 10.7841 12.5333 10.9234C12.1079 10.9444 11.8758 10.8939 11.5632 10.6496C11.5683 10.6299 11.5998 10.6388 11.601 10.6147C12.0562 10.8176 12.6352 10.532 13.0951 10.491Z" fill="#F0D6B7"/>
<path d="M12.9832 12.5881C12.9832 12.6291 12.9669 12.6683 12.938 12.6972C12.909 12.7262 12.8698 12.7424 12.8289 12.7424C12.7879 12.7424 12.7487 12.7262 12.7198 12.6972C12.6908 12.6683 12.6746 12.6291 12.6746 12.5881C12.6746 12.5472 12.6908 12.508 12.7198 12.479C12.7487 12.4501 12.7879 12.4338 12.8289 12.4338C12.8698 12.4338 12.909 12.4501 12.938 12.479C12.9669 12.508 12.9832 12.5472 12.9832 12.5881ZM13.1375 13.3036C13.1375 13.3446 13.1213 13.3838 13.0923 13.4128C13.0634 13.4417 13.0241 13.458 12.9832 13.458C12.9422 13.458 12.9029 13.4417 12.874 13.4128C12.845 13.3838 12.8288 13.3446 12.8288 13.3036C12.8288 13.2627 12.845 13.2234 12.874 13.1945C12.9029 13.1655 12.9422 13.1492 12.9832 13.1492C13.0241 13.1492 13.0634 13.1655 13.0923 13.1945C13.1213 13.2234 13.1375 13.2627 13.1375 13.3036Z" fill="#1D1919"/>
</g>
<defs>
<clipPath id="clip0_40_155">
<rect width="21" height="21" fill="white"/>
</clipPath>
</defs>
</svg>
