<svg width="33" height="33" viewBox="0 0 33 33" fill="none" xmlns="http://www.w3.org/2000/svg">
<g clip-path="url(#clip0_8_918)">
<path d="M24.8828 0.5H7.61719C3.41033 0.5 0 3.91033 0 8.11719V25.3828C0 29.5897 3.41033 33 7.61719 33H24.8828C29.0897 33 32.5 29.5897 32.5 25.3828V8.11719C32.5 3.91033 29.0897 0.5 24.8828 0.5Z" fill="url(#paint0_radial_8_918)"/>
<path d="M24.8828 0.5H7.61719C3.41033 0.5 0 3.91033 0 8.11719V25.3828C0 29.5897 3.41033 33 7.61719 33H24.8828C29.0897 33 32.5 29.5897 32.5 25.3828V8.11719C32.5 3.91033 29.0897 0.5 24.8828 0.5Z" fill="url(#paint1_radial_8_918)"/>
<path d="M16.2511 4.05469C12.8033 4.05469 12.3706 4.06979 11.0165 4.13137C9.66494 4.19332 8.74237 4.40724 7.9352 4.72119C7.10011 5.04543 6.39184 5.47923 5.68623 6.18509C4.97999 6.89082 4.54619 7.59909 4.22094 8.43381C3.90609 9.24123 3.69192 10.1642 3.63111 11.5151C3.57056 12.8693 3.55469 13.3022 3.55469 16.7501C3.55469 20.198 3.56992 20.6294 3.63137 21.9835C3.69357 23.3351 3.90749 24.2576 4.22119 25.0648C4.54568 25.8999 4.97948 26.6082 5.68534 27.3138C6.39082 28.02 7.09909 28.4548 7.93355 28.7791C8.74136 29.093 9.66405 29.3069 11.0153 29.3689C12.3696 29.4305 12.802 29.4456 16.2496 29.4456C19.6978 29.4456 20.1292 29.4305 21.4833 29.3689C22.8348 29.3069 23.7584 29.093 24.5662 28.7791C25.4009 28.4548 26.1082 28.02 26.8135 27.3138C27.5198 26.6082 27.9534 25.8999 28.2788 25.0652C28.5909 24.2576 28.8052 23.3348 28.8686 21.9838C28.9294 20.6297 28.9453 20.198 28.9453 16.7501C28.9453 13.3022 28.9294 12.8696 28.8686 11.5153C28.8052 10.1638 28.5909 9.24136 28.2788 8.43419C27.9534 7.59909 27.5198 6.89082 26.8135 6.18509C26.1074 5.47897 25.4012 5.04518 24.5654 4.72132C23.7561 4.40724 22.833 4.19319 21.4815 4.13137C20.1273 4.06979 19.6961 4.05469 16.2472 4.05469H16.2511ZM15.1122 6.34251C15.4503 6.342 15.8275 6.34251 16.2511 6.34251C19.6409 6.34251 20.0426 6.3547 21.3812 6.41551C22.619 6.47213 23.2908 6.67894 23.7383 6.85273C24.3308 7.08277 24.7532 7.35788 25.1973 7.80234C25.6416 8.24668 25.9166 8.66981 26.1473 9.2623C26.3211 9.70918 26.5281 10.381 26.5845 11.6188C26.6453 12.9571 26.6585 13.3591 26.6585 16.7472C26.6585 20.1353 26.6453 20.5374 26.5845 21.8756C26.5279 23.1134 26.3211 23.7852 26.1473 24.2322C25.9172 24.8247 25.6416 25.2466 25.1973 25.6907C24.7529 26.135 24.3311 26.41 23.7383 26.6402C23.2913 26.8147 22.619 27.021 21.3812 27.0776C20.0429 27.1384 19.6409 27.1516 16.2511 27.1516C12.8612 27.1516 12.4594 27.1384 11.1212 27.0776C9.88343 27.0205 9.21159 26.8137 8.7637 26.6399C8.17134 26.4097 7.74808 26.1348 7.30374 25.6904C6.8594 25.2461 6.58442 24.824 6.35375 24.2312C6.17995 23.7842 5.97289 23.1124 5.91652 21.8746C5.85571 20.5362 5.84353 20.1343 5.84353 16.744C5.84353 13.3538 5.85571 12.954 5.91652 11.6156C5.97314 10.3778 6.17995 9.70601 6.35375 9.2585C6.58392 8.66601 6.8594 8.24287 7.30387 7.79854C7.74833 7.3542 8.17134 7.07909 8.76383 6.84854C9.21134 6.67398 9.88343 6.46769 11.1212 6.41081C12.2924 6.35787 12.7462 6.342 15.1122 6.33934V6.34251ZM23.0279 8.45044C22.1868 8.45044 21.5045 9.13218 21.5045 9.97337C21.5045 10.8144 22.1868 11.4968 23.0279 11.4968C23.869 11.4968 24.5513 10.8144 24.5513 9.97337C24.5513 9.13231 23.869 8.44993 23.0279 8.44993V8.45044ZM16.2511 10.2304C12.6508 10.2304 9.73159 13.1496 9.73159 16.7501C9.73159 20.3506 12.6508 23.2684 16.2511 23.2684C19.8517 23.2684 22.7698 20.3506 22.7698 16.7501C22.7698 13.1497 19.8514 10.2304 16.2509 10.2304H16.2511ZM16.2511 12.5183C18.5882 12.5183 20.483 14.4128 20.483 16.7501C20.483 19.0872 18.5882 20.982 16.2511 20.982C13.9141 20.982 12.0194 19.0872 12.0194 16.7501C12.0194 14.4128 13.9139 12.5183 16.2511 12.5183Z" fill="white"/>
</g>
<defs>
<radialGradient id="paint0_radial_8_918" cx="0" cy="0" r="1" gradientUnits="userSpaceOnUse" gradientTransform="translate(8.63281 35.5031) rotate(-90) scale(32.2099 29.9578)">
<stop stop-color="#FFDD55"/>
<stop offset="0.1" stop-color="#FFDD55"/>
<stop offset="0.5" stop-color="#FF543E"/>
<stop offset="1" stop-color="#C837AB"/>
</radialGradient>
<radialGradient id="paint1_radial_8_918" cx="0" cy="0" r="1" gradientUnits="userSpaceOnUse" gradientTransform="translate(-5.44388 2.84114) rotate(78.681) scale(14.398 59.3491)">
<stop stop-color="#3771C8"/>
<stop offset="0.128" stop-color="#3771C8"/>
<stop offset="1" stop-color="#6600FF" stop-opacity="0"/>
</radialGradient>
<clipPath id="clip0_8_918">
<rect width="32.5" height="32.5" fill="white" transform="translate(0 0.5)"/>
</clipPath>
</defs>
</svg>
