<svg width="24" height="24" viewBox="0 0 24 24" fill="none" xmlns="http://www.w3.org/2000/svg">
<path d="M4.00305 15.728C3.9037 15.5705 3.85032 15.3884 3.84891 15.2022C3.84749 15.0159 3.89811 14.833 3.99505 14.674L11.474 2.47502C11.5684 2.32145 11.7026 2.19635 11.8625 2.11307C12.0223 2.02979 12.2018 1.99144 12.3817 2.00211C12.5616 2.01279 12.7353 2.07208 12.8841 2.17368C13.033 2.27528 13.1515 2.41537 13.227 2.57902L20.059 17.399C20.1186 17.5284 20.1496 17.6691 20.1502 17.8116C20.1507 17.954 20.1207 18.0949 20.0621 18.2248C20.0035 18.3546 19.9178 18.4704 19.8106 18.5643C19.7035 18.6582 19.5775 18.728 19.441 18.769L8.81305 21.959C8.60509 22.0214 8.38244 22.0142 8.17899 21.9383C7.97555 21.8625 7.80245 21.7223 7.68605 21.539L4.00305 15.728ZM12.337 6.04202L9.70705 19.14C9.69437 19.2031 9.69823 19.2684 9.71824 19.3295C9.73824 19.3906 9.77372 19.4456 9.82122 19.4889C9.86872 19.5323 9.92664 19.5627 9.98934 19.577C10.052 19.5914 10.1174 19.5894 10.179 19.571L17.522 17.379C17.5726 17.364 17.6195 17.3384 17.6594 17.304C17.6994 17.2695 17.7316 17.2269 17.7539 17.1791C17.7762 17.1313 17.7881 17.0793 17.7888 17.0265C17.7895 16.9738 17.779 16.9214 17.758 16.873L13.046 5.96802C13.015 5.89428 12.9611 5.83248 12.8922 5.79174C12.8233 5.751 12.7432 5.73348 12.6636 5.74178C12.584 5.75007 12.5092 5.78374 12.4502 5.8378C12.3913 5.89186 12.3522 5.96346 12.337 6.04202Z" fill="black"/>
</svg>
