<svg width="30" height="22" viewBox="0 0 30 22" fill="none" xmlns="http://www.w3.org/2000/svg">
<g clip-path="url(#clip0_25_270)">
<path d="M28.4596 8.50236C27.8052 8.04831 26.3056 7.87804 25.1332 8.10507C24.997 6.96993 24.3698 5.9768 23.2792 5.09707L22.6522 4.64302L22.2158 5.29572C21.6706 6.14707 21.3979 7.33896 21.4797 8.4741C21.5069 8.87128 21.6432 9.58074 22.0522 10.2051C21.6706 10.4321 20.8799 10.7159 19.8438 10.7159H0.131077L0.0765908 10.9429C-0.114339 12.0779 -0.114339 15.6251 2.12142 18.3493C3.81187 20.4208 6.32029 21.4708 9.61933 21.4708C16.7627 21.4708 22.0522 18.037 24.5334 11.8225C25.515 11.8509 27.6144 11.8225 28.6778 9.69414C28.705 9.63738 28.7595 9.52387 28.9503 9.09831L29.0594 8.87128L28.4596 8.50236ZM15.8903 0.5H12.8912V3.33772H15.8903V0.5ZM15.8903 3.90529H12.8912V6.74302H15.8903V3.90529ZM12.3458 3.90529H9.34678V6.74302H12.3458V3.90529ZM8.80135 3.90529H5.80221V6.74302H8.80135V3.90529ZM5.25689 7.31058H2.25775V10.1483H5.25678L5.25689 7.31058ZM8.80135 7.31058H5.80221V10.1483H8.80135V7.31058ZM12.3458 7.31058H9.34678V10.1483H12.3458V7.31058ZM15.8904 7.31058H12.8911V10.1483H15.8904V7.31058ZM19.4348 7.31058H16.4356V10.1483H19.4348V7.31058Z" fill="#2396ED"/>
</g>
<defs>
<clipPath id="clip0_25_270">
<rect width="29.0595" height="21" fill="white" transform="translate(0 0.5)"/>
</clipPath>
</defs>
</svg>
