<svg width="21" height="27" viewBox="0 0 21 27" fill="none" xmlns="http://www.w3.org/2000/svg">
<g clip-path="url(#clip0_40_174)">
<path d="M0.809776 24.0617L0.000947801 2.50801C-0.0258764 1.79606 0.519877 1.19272 1.23084 1.14842L19.5639 0.0026069C20.2876 -0.0426744 20.9109 0.507345 20.9562 1.23102C20.9578 1.25826 20.9586 1.28555 20.9587 1.31289V24.7996C20.9587 25.5247 20.3709 26.1124 19.6459 26.1124C19.6262 26.1124 19.6066 26.112 19.587 26.1111L2.06289 25.324C1.38039 25.2934 0.835452 24.7445 0.809776 24.0617" fill="#FF4785"/>
<mask id="mask0_40_174" style="mask-type:luminance" maskUnits="userSpaceOnUse" x="0" y="0" width="21" height="27">
<path d="M0.809776 24.0617L0.000947801 2.50801C-0.0258764 1.79606 0.519877 1.19272 1.23084 1.14842L19.5639 0.0026069C20.2876 -0.0426744 20.9109 0.507345 20.9562 1.23102C20.9578 1.25826 20.9586 1.28555 20.9587 1.31289V24.7996C20.9587 25.5247 20.3709 26.1124 19.6459 26.1124C19.6262 26.1124 19.6066 26.112 19.587 26.1111L2.06289 25.324C1.38039 25.2934 0.835452 24.7445 0.809776 24.0617" fill="white"/>
</mask>
<g mask="url(#mask0_40_174)">
<path d="M15.4764 3.20964L15.6017 0.197777L18.1194 0L18.2279 3.10595C18.2292 3.1433 18.2198 3.18025 18.2009 3.21244C18.1819 3.24464 18.1541 3.27073 18.1208 3.28764C18.0874 3.30454 18.05 3.31156 18.0128 3.30785C17.9756 3.30415 17.9402 3.28988 17.9109 3.26673L16.9401 2.50179L15.7905 3.37378C15.761 3.39627 15.7256 3.40987 15.6885 3.41299C15.6515 3.41611 15.6143 3.40863 15.5814 3.39141C15.5485 3.3742 15.5211 3.34796 15.5025 3.31577C15.4839 3.28359 15.4749 3.24677 15.4764 3.20964ZM12.2566 9.84211C12.2566 10.3529 15.6972 10.1081 16.159 9.74933C16.159 6.27104 14.2927 4.44322 10.875 4.44322C7.4574 4.44322 5.54255 6.29943 5.54255 9.08373C5.54255 13.9332 12.087 14.026 12.087 16.6711C12.087 17.4137 11.7234 17.8545 10.9235 17.8545C9.88126 17.8545 9.46914 17.3221 9.51762 15.5124C9.51762 15.1198 5.54255 14.9974 5.42131 15.5124C5.1127 19.8982 7.84517 21.1632 10.972 21.1632C14.0018 21.1632 16.3772 19.5483 16.3772 16.6248C16.3772 11.4273 9.73582 11.5665 9.73582 8.99095C9.73582 7.94686 10.5114 7.80765 10.972 7.80765C11.4568 7.80765 12.3293 7.89313 12.2566 9.84211Z" fill="white"/>
</g>
</g>
<defs>
<clipPath id="clip0_40_174">
<rect width="21" height="26.168" fill="white"/>
</clipPath>
</defs>
</svg>
