<svg width="23" height="23" viewBox="0 0 23 23" fill="none" xmlns="http://www.w3.org/2000/svg">
<g clip-path="url(#clip0_25_211)">
<mask id="mask0_25_211" style="mask-type:luminance" maskUnits="userSpaceOnUse" x="0" y="0" width="23" height="23">
<path d="M11.5 23C17.8513 23 23 17.8513 23 11.5C23 5.14873 17.8513 0 11.5 0C5.14873 0 0 5.14873 0 11.5C0 17.8513 5.14873 23 11.5 23Z" fill="white"/>
</mask>
<g mask="url(#mask0_25_211)">
<path d="M11.5 23C17.8513 23 23 17.8513 23 11.5C23 5.14873 17.8513 0 11.5 0C5.14873 0 0 5.14873 0 11.5C0 17.8513 5.14873 23 11.5 23Z" fill="black"/>
<path d="M19.1039 20.1275L8.83481 6.90002H6.90002V16.0962H8.44785V8.86581L17.8888 21.0635C18.3142 20.7789 18.7201 20.4662 19.1039 20.1275Z" fill="url(#paint0_linear_25_211)"/>
<path d="M14.6945 6.90002H16.2278V16.1H14.6945V6.90002Z" fill="url(#paint1_linear_25_211)"/>
</g>
</g>
<defs>
<linearGradient id="paint0_linear_25_211" x1="685.836" y1="805.509" x2="1093.37" y2="1310.63" gradientUnits="userSpaceOnUse">
<stop stop-color="white"/>
<stop offset="1" stop-color="white" stop-opacity="0"/>
</linearGradient>
<linearGradient id="paint1_linear_25_211" x1="91.3626" y1="6.90002" x2="88.7683" y2="682.52" gradientUnits="userSpaceOnUse">
<stop stop-color="white"/>
<stop offset="1" stop-color="white" stop-opacity="0"/>
</linearGradient>
<clipPath id="clip0_25_211">
<rect width="23" height="23" fill="white"/>
</clipPath>
</defs>
</svg>
