<svg width="21" height="8" viewBox="0 0 21 8" fill="none" xmlns="http://www.w3.org/2000/svg">
<g clip-path="url(#clip0_40_140)">
<path d="M18.9053 7.35189C18.3409 7.35189 17.8088 7.13131 17.4087 6.7312L14.2923 3.61471C13.9786 3.3011 13.7732 2.90965 13.6997 2.48362C13.6564 2.23441 13.6586 1.97942 13.7061 1.73098H12.7848C12.5599 1.73098 12.4648 1.8802 12.428 1.96887C12.3912 2.05755 12.3523 2.23055 12.5123 2.3906L13.8597 3.73796C14.1733 4.05157 14.3788 4.44302 14.4523 4.86909C14.5215 5.26272 14.4739 5.6693 14.3203 6.04562C14.1647 6.41977 13.9095 6.73985 13.5829 6.97126C13.2282 7.21998 12.8086 7.35189 12.3653 7.35189H12.322C11.7575 7.35189 11.2255 7.13131 10.8254 6.7312L10.5269 6.43273C10.3842 6.64252 10.2069 6.82418 9.99927 6.96909C9.64457 7.21781 9.22502 7.34971 8.78164 7.34971C8.21718 7.34971 7.68513 7.12913 7.28502 6.72902L2.39731 1.84127C2.36158 1.80544 2.3191 1.77705 2.27232 1.75775C2.22554 1.73844 2.1754 1.72861 2.1248 1.72881C1.89987 1.72881 1.80472 1.87807 1.76797 1.9667C1.73117 2.05538 1.69225 2.22838 1.85229 2.38846L3.19966 3.73583C3.51326 4.04943 3.71871 4.44089 3.79225 4.86691C3.86144 5.26054 3.81387 5.66713 3.6603 6.04345C3.50461 6.41759 3.24941 6.73768 2.92284 6.96909C2.56814 7.21781 2.14859 7.34971 1.70521 7.34971H1.08883C0.610874 7.34971 0.223769 6.96261 0.223769 6.48465C0.223769 6.0067 0.610874 5.61955 1.08883 5.61955H1.69656C1.92149 5.61955 2.01664 5.47034 2.05339 5.38166C2.09018 5.29299 2.12911 5.11998 1.96907 4.95994L0.623876 3.61471C0.310271 3.3011 0.104823 2.90965 0.0312823 2.48362C-0.0379111 2.08999 0.00966706 1.6834 0.163189 1.30709C0.318925 0.932942 0.574124 0.612856 0.900691 0.381446C1.25539 0.132727 1.67712 0.000820933 2.1205 0.000820933C2.68495 0.000820933 3.21697 0.221403 3.61707 0.62151L8.50482 5.50926C8.54055 5.54509 8.58304 5.57348 8.62981 5.59279C8.67659 5.61209 8.72673 5.62193 8.77733 5.62173C9.00222 5.62173 9.09742 5.47251 9.13417 5.38383C9.17092 5.29516 9.20984 5.12215 9.05197 4.96424L5.56564 1.47792C5.22829 1.14056 5.22829 0.593415 5.56564 0.253846C5.90308 -0.085681 6.45023 -0.0835482 6.7898 0.253846L10.2739 3.738L10.2783 3.74231L12.0452 5.50926C12.0809 5.54509 12.1234 5.57347 12.1702 5.59278C12.2169 5.61208 12.2671 5.62192 12.3177 5.62173H12.3609C12.5859 5.62173 12.681 5.47251 12.7178 5.38383C12.7545 5.29516 12.7935 5.12216 12.6335 4.96207L11.2882 3.61471C10.9746 3.3011 10.7692 2.90965 10.6956 2.48362C10.6264 2.08999 10.674 1.6834 10.8276 1.30709C10.9833 0.932942 11.2385 0.612856 11.565 0.381446C11.9197 0.132727 12.3415 0.000820933 12.7848 0.000820933H16.3079C16.7859 0.000820933 17.173 0.387926 17.173 0.865881C17.173 1.34384 16.7859 1.73098 16.3079 1.73098H15.7888C15.5639 1.73098 15.4688 1.8802 15.432 1.96887C15.3952 2.05755 15.3563 2.23055 15.5164 2.3906L18.6328 5.50709C18.6685 5.54292 18.711 5.57131 18.7578 5.59061C18.8046 5.60992 18.8547 5.61975 18.9053 5.61955C19.1022 5.61955 19.2622 5.45951 19.2622 5.26272C19.2622 4.78476 19.6493 4.39761 20.1273 4.39761C20.6052 4.39761 20.9924 4.78476 20.9924 5.26272C20.9945 6.41542 20.0559 7.35189 18.9053 7.35189Z" fill="url(#paint0_linear_40_140)"/>
<path d="M18.9051 6.59499C18.5418 6.59499 18.2001 6.45443 17.9427 6.19706L14.8263 3.08057C14.4305 2.68477 14.318 2.116 14.5321 1.59908C14.6424 1.33527 14.8219 1.12113 15.0447 0.976262H12.7846C12.3131 0.976262 11.9087 1.24655 11.727 1.68132C11.5453 2.116 11.6427 2.59396 11.9757 2.92701L13.3231 4.27437C13.7189 4.67017 13.8314 5.23897 13.6172 5.75585C13.4031 6.27273 12.9209 6.59499 12.3607 6.59499H12.3175C11.9541 6.59499 11.6124 6.45443 11.3551 6.19706L10.1115 4.95346C10.1677 5.21514 10.1418 5.492 10.0336 5.75585C9.81952 6.27273 9.33721 6.59499 8.77711 6.59499C8.41375 6.59499 8.07205 6.45443 7.81467 6.19706L2.92697 1.30927C2.71069 1.09299 2.42305 0.974047 2.11814 0.974047C1.64666 0.974047 1.24221 1.24438 1.06055 1.67911C0.881024 2.11383 0.976221 2.59179 1.30927 2.92487L2.65663 4.27224C3.05243 4.66804 3.16486 5.2368 2.95075 5.75372C2.73665 6.27064 2.25435 6.59282 1.69424 6.59282H1.0886C1.07437 6.59296 1.06024 6.59026 1.04706 6.58488C1.03388 6.5795 1.0219 6.57154 1.01184 6.56147C1.00177 6.5514 0.99381 6.53943 0.988427 6.52624C0.983044 6.51306 0.980344 6.49894 0.980487 6.4847C0.980339 6.47046 0.983034 6.45633 0.988415 6.44315C0.993795 6.42996 1.00175 6.41798 1.01182 6.40791C1.02189 6.39783 1.03387 6.38987 1.04705 6.38449C1.06024 6.3791 1.07436 6.3764 1.0886 6.37654H1.69633C2.16781 6.37654 2.57226 6.10625 2.75392 5.67148C2.93562 5.2368 2.83825 4.75885 2.5052 4.4258L1.15784 3.07844C0.762038 2.68481 0.649573 2.116 0.863716 1.59912C1.07782 1.08007 1.55795 0.757812 2.12023 0.757812C2.48359 0.757812 2.82529 0.898373 3.08266 1.15575L7.97041 6.0435C8.18669 6.25977 8.47433 6.37872 8.77924 6.37872C9.25071 6.37872 9.65517 6.10838 9.83683 5.67366C10.0163 5.23897 9.92333 4.76315 9.59028 4.43011L6.10182 0.943777C6.09156 0.933801 6.0834 0.921867 6.07783 0.908682C6.07226 0.895498 6.06939 0.88133 6.06939 0.867017C6.06939 0.852703 6.07226 0.838535 6.07783 0.825351C6.0834 0.812166 6.09156 0.800233 6.10182 0.790256C6.1118 0.779993 6.12373 0.771834 6.13692 0.766263C6.1501 0.760692 6.16427 0.757822 6.17858 0.757822C6.19289 0.757822 6.20706 0.760692 6.22025 0.766263C6.23343 0.771834 6.24537 0.779993 6.25534 0.790256L9.7395 4.27441L9.74167 4.27654L11.5086 6.0435C11.7249 6.25977 12.0125 6.37872 12.3175 6.37872H12.3607C12.8322 6.37872 13.2366 6.10838 13.4183 5.67366C13.5978 5.23897 13.5026 4.76102 13.1696 4.42793L11.8222 3.08057C11.4264 2.68477 11.314 2.116 11.5281 1.59908C11.7422 1.08221 12.2245 0.759986 12.7846 0.759986H16.3077C16.3219 0.759838 16.336 0.762533 16.3492 0.767914C16.3624 0.773294 16.3744 0.781252 16.3844 0.791321C16.3945 0.801389 16.4025 0.813367 16.4079 0.826551C16.4133 0.839736 16.416 0.853862 16.4158 0.868103C16.416 0.882348 16.4133 0.896479 16.4079 0.909668C16.4025 0.922858 16.3945 0.93484 16.3845 0.944913C16.3744 0.954986 16.3624 0.962947 16.3492 0.96833C16.336 0.973713 16.3219 0.97641 16.3077 0.976262H15.7886C15.3172 0.976262 14.9127 1.24655 14.7311 1.68132C14.5515 2.116 14.6467 2.59396 14.9798 2.92701L18.0962 6.0435C18.3125 6.25977 18.6001 6.37872 18.9051 6.37872C19.5193 6.37872 20.0189 5.87915 20.0189 5.26494C20.0188 5.2507 20.0215 5.23657 20.0268 5.22338C20.0322 5.2102 20.0402 5.19822 20.0502 5.18814C20.0603 5.17807 20.0723 5.17011 20.0855 5.16472C20.0987 5.15934 20.1128 5.15664 20.127 5.15678C20.1413 5.15663 20.1554 5.15933 20.1686 5.16471C20.1818 5.17009 20.1938 5.17805 20.2038 5.18813C20.2139 5.1982 20.2219 5.21018 20.2273 5.22337C20.2326 5.23656 20.2353 5.25069 20.2352 5.26494C20.2373 5.99809 19.6405 6.59499 18.9051 6.59499" fill="white"/>
</g>
<defs>
<linearGradient id="paint0_linear_40_140" x1="0.000244141" y1="367.705" x2="2099.32" y2="367.705" gradientUnits="userSpaceOnUse">
<stop stop-color="#FFA588"/>
<stop offset="0.271" stop-color="#FCB371"/>
<stop offset="0.8357" stop-color="#F4D837"/>
<stop offset="1" stop-color="#F1E425"/>
</linearGradient>
<clipPath id="clip0_40_140">
<rect width="21" height="7.38281" fill="white"/>
</clipPath>
</defs>
</svg>
