<svg width="23" height="23" viewBox="0 0 23 23" fill="none" xmlns="http://www.w3.org/2000/svg">
<g clip-path="url(#clip0_25_219)">
<path d="M11.5137 0.000105728C13.3803 0.000105728 15.138 0.436207 16.7868 1.28101L17.0047 1.39008L16.814 1.53994C16.3508 1.90785 15.9828 2.38474 15.7511 2.92973L15.683 3.07959L15.5468 3.01149C14.2796 2.41196 12.9307 2.09859 11.5272 2.09859C6.33587 2.09859 2.12561 6.3225 2.12561 11.5002C2.12561 16.6779 6.32221 20.9019 11.5137 20.9019C16.7051 20.9019 20.9153 16.678 20.9153 11.5002C20.9153 10.2604 20.6836 9.04764 20.1931 7.90303L20.125 7.75317L20.2749 7.68507C20.8335 7.48068 21.3241 7.14008 21.7192 6.70398L21.869 6.51324L21.9645 6.73129C22.6594 8.24372 23 9.85156 23 11.473C23 17.8088 17.8359 22.973 11.5 22.973C5.16413 22.973 0 17.8088 0 11.4731C0 5.13728 5.16413 -0.0269372 11.5137 0.000105728ZM11.5137 6.26796C14.3887 6.26796 16.7459 8.61163 16.7595 11.5139C16.7595 14.4161 14.4159 16.7597 11.5137 16.7597C8.61134 16.7597 6.26777 14.4161 6.26777 11.5139C6.26777 8.61163 8.625 6.26796 11.5137 6.26796ZM19.0214 1.93507C20.3457 1.93507 21.4195 3.0087 21.4195 4.33318C21.4195 5.65757 20.3458 6.73129 19.0214 6.73129C17.6969 6.73129 16.6233 5.65766 16.6233 4.33318C16.6233 3.0087 17.6969 1.93507 19.0214 1.93507Z" fill="#3880FF"/>
</g>
<defs>
<clipPath id="clip0_25_219">
<rect width="23" height="23" fill="white"/>
</clipPath>
</defs>
</svg>
