<svg width="21" height="21" viewBox="0 0 21 21" fill="none" xmlns="http://www.w3.org/2000/svg">
<g clip-path="url(#clip0_40_395)">
<path d="M2.87831 2.34143C1.92987 3.11154 1.31398 4.2288 1.18289 5.47157L0 16.7304L0.00615234 16.9242L0.00926953 16.9894C0.0530804 17.6908 0.350979 18.3522 0.847219 18.8499C1.11378 19.1177 1.43068 19.3302 1.77968 19.4751C2.12869 19.6199 2.5029 19.6943 2.88077 19.694L13.9248 19.685L14.0403 19.6832C15.1656 19.6463 16.2102 19.2239 17.0227 18.489C17.9475 17.6528 18.4863 16.496 18.5501 15.2728C18.614 14.0497 18.1984 12.8426 17.3659 11.9138L9.23738 2.84674L9.15887 2.76151C8.37925 1.94571 7.36813 1.44786 6.2808 1.33211C5.04345 1.20054 3.82668 1.57132 2.87831 2.34143ZM5.84259 5.48757C5.95405 5.49947 6.05769 5.55048 6.13512 5.63154L14.274 14.7099C14.3162 14.7563 14.3486 14.8107 14.3695 14.8698C14.3903 14.9289 14.3992 14.9916 14.3954 15.0541C14.3926 15.1167 14.3773 15.1781 14.3504 15.2347C14.3235 15.2913 14.2856 15.3419 14.2388 15.3837C14.1557 15.4588 14.0487 15.5022 13.9367 15.506L4.31115 15.514L5.32022 5.91093C5.32639 5.84873 5.34492 5.7884 5.37472 5.73346C5.40453 5.67852 5.44501 5.63009 5.4938 5.59101C5.54201 5.55129 5.59772 5.52167 5.65761 5.50392C5.71751 5.48616 5.78036 5.48063 5.84243 5.48765" fill="#70211D"/>
<path d="M18.1072 1.08826e-06L2.88794 0.0124698L2.76407 0.015587L2.69434 0.0191144C2.04929 0.0632834 1.43787 0.32328 0.958563 0.757232C0.388871 1.27264 0.0468432 1.99295 0.00749287 2.76019C-0.0331865 3.52762 0.232003 4.27988 0.744954 4.85215L14.3611 20.0406L14.4461 20.131L14.4954 20.1807C14.9581 20.6323 15.5593 20.9151 16.2023 20.9838C16.5795 21.024 16.9609 20.9891 17.3246 20.8813C17.6883 20.7734 18.027 20.5946 18.3213 20.3552C18.9176 19.8709 19.2973 19.1698 19.3772 18.4058L20.9999 2.9756L20.9938 2.78094L20.9907 2.71581C20.9467 2.01146 20.6475 1.34728 20.1492 0.847548C19.8815 0.578626 19.5633 0.365298 19.2128 0.219841C18.8624 0.0743845 18.4866 -0.000328888 18.1072 1.08826e-06ZM16.6894 4.17933L15.5396 15.1108L5.74845 4.18811L16.6894 4.17933Z" fill="#ED7344"/>
</g>
<defs>
<clipPath id="clip0_40_395">
<rect width="21" height="21" fill="white"/>
</clipPath>
</defs>
</svg>
