<svg width="26" height="23" viewBox="0 0 26 23" fill="none" xmlns="http://www.w3.org/2000/svg">
<g clip-path="url(#clip0_25_209)">
<path d="M21.3772 7.44714C21.1005 7.35287 20.8214 7.26551 20.5403 7.18516C20.5875 6.9935 20.631 6.80415 20.6696 6.61813C21.3031 3.56347 20.889 1.10257 19.4743 0.292325C18.1179 -0.48443 15.8997 0.325513 13.6594 2.26205C13.4387 2.45324 13.2228 2.64995 13.012 2.85198C12.8709 2.71764 12.7273 2.58591 12.5813 2.45685C10.2333 0.386241 7.87993 -0.486447 6.46679 0.326118C5.11164 1.10529 4.71037 3.41871 5.28074 6.31368C5.33749 6.6004 5.40156 6.88564 5.4729 7.16912C5.13977 7.26314 4.81833 7.36321 4.51069 7.46974C1.75795 8.42303 0 9.91692 0 11.4665C0 13.0669 1.88723 14.6722 4.75434 15.6455C4.98679 15.7241 5.22117 15.7969 5.45726 15.8639C5.38061 16.1693 5.31253 16.4767 5.25312 16.7857C4.70935 19.6305 5.13398 21.8892 6.48548 22.6635C7.88135 23.463 10.2242 22.6413 12.5054 20.6605C12.6904 20.4995 12.8713 20.3339 13.0479 20.1639C13.2762 20.3827 13.5106 20.5951 13.7507 20.8009C15.9605 22.6895 18.1429 23.4521 19.4931 22.6758C20.8876 21.8739 21.3409 19.4474 20.7525 16.4952C20.7061 16.2639 20.6541 16.0338 20.5966 15.805C20.7611 15.7566 20.9226 15.7068 21.08 15.6549C24.0607 14.6741 26 13.0883 26 11.4665C26 9.91127 24.1853 8.40729 21.3772 7.44714ZM20.7307 14.6078C20.5884 14.6545 20.4428 14.6997 20.294 14.7435C19.965 13.7088 19.5209 12.6086 18.9775 11.4718C19.496 10.3622 19.923 9.27604 20.2428 8.24811C20.5088 8.32457 20.7669 8.40517 21.0157 8.49021C23.4217 9.31297 24.8893 10.5292 24.8893 11.4665C24.8893 12.4648 23.3043 13.7607 20.7307 14.6078ZM19.6629 16.7095C19.9231 18.0148 19.9602 19.1951 19.7878 20.1178C19.633 20.9469 19.3217 21.4996 18.9365 21.7211C18.1172 22.1922 16.365 21.5798 14.4752 19.9646C14.2518 19.7733 14.0338 19.5758 13.8214 19.3724C14.5541 18.5766 15.2863 17.6515 16.0009 16.6239C17.2578 16.5132 18.4453 16.332 19.5221 16.0848C19.5753 16.2974 19.6222 16.5056 19.6629 16.7095ZM8.86397 21.6397C8.06345 21.9204 7.42584 21.9285 7.04041 21.7077C6.2203 21.238 5.87935 19.4243 6.34441 16.9915C6.39969 16.7041 6.46299 16.4182 6.53423 16.1342C7.59921 16.3682 8.77805 16.5365 10.0379 16.638C10.7574 17.6434 11.5107 18.5675 12.2699 19.3768C12.1085 19.5318 11.9434 19.6829 11.7745 19.8299C10.7657 20.7057 9.75488 21.3271 8.86397 21.6397ZM5.11367 14.6017C3.84587 14.1712 2.79886 13.6118 2.08122 13.0014C1.4363 12.453 1.11079 11.9083 1.11079 11.4665C1.11079 10.5261 2.5222 9.32668 4.87632 8.5115C5.16202 8.41264 5.46102 8.31932 5.77129 8.23176C6.0967 9.2829 6.52346 10.382 7.03848 11.4933C6.51676 12.6211 6.0839 13.7377 5.75534 14.8013C5.53984 14.74 5.32589 14.6734 5.11367 14.6017ZM6.37081 6.10174C5.8822 3.62147 6.20669 1.7505 7.02335 1.28092C7.89313 0.780772 9.81652 1.49387 11.8438 3.28182C11.976 3.39867 12.1061 3.51789 12.2339 3.63943C11.4785 4.44514 10.7321 5.36241 10.019 6.3619C8.79623 6.47448 7.62572 6.65525 6.54956 6.89746C6.48324 6.63379 6.42364 6.3684 6.37081 6.10174ZM17.5861 8.85256C17.3319 8.41646 17.0682 7.98586 16.7954 7.56103C17.625 7.66524 18.4198 7.80354 19.1662 7.97261C18.9421 8.68601 18.6628 9.4318 18.3341 10.1964C18.0938 9.74358 17.8444 9.29553 17.5861 8.85256ZM13.0125 4.42799C13.5248 4.97928 14.0379 5.59473 14.5425 6.26254C13.5188 6.21451 12.4933 6.21431 11.4696 6.26193C11.9747 5.60028 12.4922 4.98564 13.0125 4.42799ZM8.40958 8.86003C8.15448 9.29943 7.90975 9.74469 7.67559 10.1954C7.35221 9.43351 7.07545 8.6843 6.84948 7.96081C7.59129 7.79597 8.38236 7.6612 9.20664 7.55891C8.93075 7.98634 8.66499 8.42023 8.40958 8.86003ZM9.2303 15.4525C8.3787 15.358 7.57575 15.2302 6.83414 15.0698C7.06367 14.3334 7.34652 13.5683 7.67691 12.79C7.912 13.2411 8.15775 13.6866 8.41395 14.1262C8.6774 14.5781 8.9502 15.0208 9.2303 15.4525ZM13.0432 18.5827C12.5167 18.0186 11.9916 17.3944 11.4788 16.7232C11.9767 16.7426 12.4842 16.7525 13 16.7525C13.53 16.7525 14.0538 16.7407 14.5694 16.7179C14.0632 17.4012 13.552 18.0262 13.0432 18.5827ZM18.3445 12.7503C18.6921 13.5371 18.985 14.2982 19.2176 15.022C18.4638 15.1929 17.6498 15.3305 16.7922 15.4327C17.0671 15 17.3332 14.5619 17.5904 14.1187C17.852 13.6681 18.1034 13.2119 18.3445 12.7503ZM16.6283 13.5675C16.2345 14.247 15.8185 14.9136 15.381 15.5663C14.5886 15.6221 13.7944 15.6498 13 15.6494C12.1909 15.6494 11.4038 15.6243 10.646 15.5755C10.1971 14.9244 9.77316 14.2565 9.37513 13.5735C8.97892 12.8941 8.60897 12.2 8.26587 11.4927C8.6081 10.7852 8.97704 10.0908 9.37188 9.41092L9.37178 9.41102C9.76643 8.73091 10.187 8.06595 10.6325 7.41758C11.4057 7.35948 12.1986 7.32922 12.9999 7.32922C13.8049 7.32922 14.5989 7.35978 15.3719 7.41829C15.8129 8.06569 16.2308 8.72836 16.6247 9.40507C17.0208 10.0835 17.3946 10.7745 17.7455 11.4771C17.3982 12.1868 17.0255 12.884 16.6283 13.5675ZM18.9196 1.24793C19.7902 1.74667 20.1288 3.75786 19.5818 6.39529C19.5467 6.56369 19.5078 6.73485 19.465 6.90876C18.3862 6.66141 17.2148 6.47751 15.9885 6.36321C15.2741 5.35273 14.5338 4.43404 13.7907 3.63872C13.9854 3.45226 14.1848 3.27062 14.3887 3.09399C16.3082 1.43486 18.1022 0.779763 18.9196 1.24793ZM13 9.16044C14.2822 9.16044 15.3217 10.1929 15.3217 11.4665C15.3217 12.7401 14.2822 13.7725 13 13.7725C11.7178 13.7725 10.6783 12.7401 10.6783 11.4665C10.6783 10.1929 11.7178 9.16044 13 9.16044Z" fill="#00D8FF"/>
</g>
<defs>
<clipPath id="clip0_25_209">
<rect width="26" height="23" fill="white"/>
</clipPath>
</defs>
</svg>
