<svg width="21" height="22" viewBox="0 0 21 22" fill="none" xmlns="http://www.w3.org/2000/svg">
<g clip-path="url(#clip0_25_264)">
<path d="M16.0781 0.5H4.92188C2.2036 0.5 0 2.7036 0 5.42188V16.5781C0 19.2964 2.2036 21.5 4.92188 21.5H16.0781C18.7964 21.5 21 19.2964 21 16.5781V5.42188C21 2.7036 18.7964 0.5 16.0781 0.5Z" fill="#242938"/>
<path d="M6.9517 9.6843C6.9517 9.88396 6.97328 10.0458 7.01101 10.1646C7.05891 10.2982 7.11666 10.4281 7.18377 10.5532C7.21076 10.5963 7.2215 10.6395 7.2215 10.6773C7.2215 10.7313 7.1891 10.7852 7.11896 10.8391L6.77895 11.0659C6.73038 11.0982 6.68182 11.1144 6.63867 11.1144C6.5847 11.1144 6.53072 11.0874 6.47674 11.0389C6.40405 10.9607 6.339 10.8758 6.28249 10.7852C6.22217 10.6815 6.16634 10.5753 6.11515 10.4668C5.69422 10.9634 5.16534 11.2116 4.5285 11.2116C4.0752 11.2116 3.7136 11.082 3.44913 10.823C3.18475 10.5639 3.0498 10.2186 3.0498 9.78684C3.0498 9.32804 3.21173 8.9557 3.54093 8.67507C3.87012 8.39444 4.30726 8.25409 4.86311 8.25409C5.04661 8.25409 5.23553 8.27033 5.43519 8.29732C5.63486 8.3243 5.83993 8.36745 6.05584 8.41602V8.02202C6.05584 7.61186 5.96946 7.32582 5.8022 7.15856C5.62944 6.99121 5.33807 6.91033 4.9225 6.91033C4.73358 6.91033 4.53933 6.93191 4.33966 6.98047C4.14 7.02903 3.94567 7.08842 3.75675 7.16397C3.69538 7.1914 3.63231 7.21483 3.56791 7.23411C3.53018 7.24494 3.50311 7.25035 3.48154 7.25035C3.40607 7.25035 3.36817 7.19638 3.36817 7.08301V6.81854C3.36817 6.73224 3.379 6.66744 3.40598 6.6297C3.43297 6.59197 3.48153 6.55415 3.55709 6.51634C3.74598 6.41921 3.97266 6.33827 4.23712 6.27352C4.50151 6.2033 4.78214 6.17098 5.07901 6.17098C5.72123 6.17098 6.1907 6.31667 6.49298 6.60805C6.78977 6.8995 6.94087 7.34206 6.94087 7.93572V9.6843H6.9517ZM4.76065 10.5046C4.93866 10.5046 5.12216 10.4722 5.31649 10.4074C5.51074 10.3427 5.68342 10.2239 5.82919 10.0621C5.91548 9.95952 5.98029 9.84615 6.01261 9.71662C6.04493 9.58709 6.06659 9.43058 6.06659 9.24716V9.02042C5.90294 8.98061 5.7372 8.94999 5.57013 8.92871C5.40184 8.90743 5.2324 8.89661 5.06277 8.89631C4.70118 8.89631 4.43679 8.96653 4.2587 9.11221C4.08061 9.2579 3.99423 9.46298 3.99423 9.73286C3.99423 9.9865 4.05904 10.1753 4.19389 10.3049C4.3235 10.4398 4.51242 10.5046 4.76065 10.5046ZM9.09411 11.0874C8.99699 11.0874 8.93218 11.0712 8.88904 11.0335C8.84589 11.0011 8.80807 10.9255 8.77575 10.823L7.50755 6.65128C7.47506 6.54332 7.4589 6.47319 7.4589 6.43537C7.4589 6.34907 7.50205 6.30043 7.58843 6.30043H8.11729C8.21982 6.30043 8.29004 6.31667 8.32778 6.35441C8.37093 6.38681 8.40333 6.46236 8.43573 6.5649L9.34234 10.1376L10.1843 6.5649C10.2113 6.45695 10.2436 6.38689 10.2868 6.35441C10.33 6.32209 10.4055 6.30051 10.5027 6.30051H10.9344C11.0369 6.30051 11.1072 6.31667 11.1503 6.35441C11.1935 6.38681 11.2313 6.46236 11.2528 6.5649L12.1056 10.1808L13.0392 6.5649C13.0716 6.45695 13.1094 6.38689 13.1471 6.35441C13.1903 6.32209 13.2605 6.30051 13.3576 6.30051H13.8595C13.9459 6.30051 13.9944 6.34366 13.9944 6.43537C13.9944 6.46244 13.989 6.48935 13.9836 6.52175C13.9783 6.55415 13.9674 6.59722 13.9459 6.65669L12.6452 10.8284C12.6128 10.9363 12.575 11.0065 12.5319 11.0389C12.4887 11.0712 12.4185 11.0929 12.3268 11.0929H11.8627C11.7601 11.0929 11.69 11.0766 11.6468 11.0389C11.6036 11.0011 11.5659 10.9309 11.5443 10.823L10.7078 7.34206L9.87669 10.8176C9.8497 10.9255 9.8173 10.9957 9.77415 11.0335C9.73092 11.0712 9.65537 11.0874 9.55825 11.0874H9.09411ZM16.029 11.2331C15.7484 11.2331 15.4678 11.2007 15.1979 11.136C14.9281 11.0712 14.7176 11.0011 14.5772 10.9201C14.4909 10.8715 14.4316 10.8176 14.41 10.769C14.389 10.7214 14.378 10.6699 14.3776 10.6179V10.3427C14.3776 10.2293 14.4207 10.1753 14.5017 10.1753C14.5341 10.1753 14.5665 10.1808 14.5988 10.1916C14.6312 10.2023 14.6798 10.2239 14.7338 10.2456C14.9244 10.3294 15.1234 10.3927 15.3274 10.4344C15.5388 10.4773 15.7539 10.499 15.9696 10.4992C16.3097 10.4992 16.5741 10.4398 16.7576 10.3211C16.9411 10.2023 17.0382 10.0297 17.0382 9.80841C17.0382 9.65731 16.9896 9.53312 16.8925 9.43058C16.7954 9.32804 16.6119 9.23633 16.3474 9.14995L15.5649 8.90714C15.1709 8.78302 14.8794 8.59952 14.7014 8.35671C14.5233 8.11923 14.4316 7.85468 14.4316 7.57413C14.4316 7.3475 14.4801 7.14781 14.5772 6.97505C14.6744 6.80238 14.8039 6.65128 14.9658 6.53258C15.1278 6.40838 15.3113 6.31667 15.5271 6.25187C15.743 6.18706 15.9696 6.16016 16.2071 6.16016C16.3258 6.16016 16.4499 6.16557 16.5687 6.18173C16.6928 6.19789 16.8061 6.21946 16.9195 6.24112C17.0274 6.26811 17.13 6.2951 17.2271 6.3275C17.3242 6.35982 17.3998 6.3922 17.4538 6.42462C17.5293 6.46777 17.5833 6.51092 17.6157 6.55948C17.6481 6.60269 17.6642 6.66208 17.6642 6.73766V6.9913C17.6642 7.10458 17.6211 7.16397 17.5401 7.16397C17.4969 7.16397 17.4268 7.1424 17.3351 7.09917C17.0274 6.95889 16.682 6.88876 16.2988 6.88876C15.9912 6.88876 15.7484 6.93732 15.5811 7.03986C15.4137 7.1424 15.3274 7.29891 15.3274 7.52015C15.3274 7.67125 15.3814 7.80078 15.4894 7.90332C15.5973 8.00586 15.797 8.1084 16.083 8.20011L16.8493 8.44292C17.2378 8.56712 17.5186 8.73979 17.6858 8.96111C17.8531 9.18243 17.934 9.43599 17.934 9.71662C17.934 9.94869 17.8855 10.1592 17.7938 10.3427C17.6966 10.5262 17.5671 10.688 17.3998 10.8176C17.2325 10.9525 17.0328 11.0496 16.8008 11.1198C16.5579 11.1954 16.3042 11.2331 16.029 11.2331Z" fill="white"/>
<path fill-rule="evenodd" clip-rule="evenodd" d="M17.0492 13.856C15.2736 15.1674 12.694 15.8636 10.4758 15.8636C7.36735 15.8636 4.56631 14.7141 2.45081 12.8036C2.28346 12.6525 2.43465 12.4474 2.63431 12.5661C4.92257 13.8937 7.7451 14.6979 10.6648 14.6979C12.6346 14.6979 14.7987 14.2877 16.7901 13.4458C17.0869 13.3109 17.3405 13.6401 17.0492 13.856Z" fill="#FF9900"/>
<path fill-rule="evenodd" clip-rule="evenodd" d="M17.7884 13.0141C17.5617 12.7226 16.2881 12.8737 15.7106 12.9439C15.5379 12.9655 15.511 12.8143 15.6675 12.7011C16.682 11.9887 18.3497 12.1938 18.544 12.4312C18.7382 12.6741 18.49 14.3417 17.5402 15.1404C17.3944 15.2645 17.2541 15.1997 17.3188 15.0379C17.5348 14.5036 18.015 13.3 17.7884 13.0141Z" fill="#FF9900"/>
</g>
<defs>
<clipPath id="clip0_25_264">
<rect width="21" height="21" fill="white" transform="translate(0 0.5)"/>
</clipPath>
</defs>
</svg>
