<svg width="21" height="21" viewBox="0 0 21 21" fill="none" xmlns="http://www.w3.org/2000/svg">
<g clip-path="url(#clip0_40_98)">
<path d="M16.0781 0H4.92188C2.2036 0 0 2.2036 0 4.92188V16.0781C0 18.7964 2.2036 21 4.92188 21H16.0781C18.7964 21 21 18.7964 21 16.0781V4.92188C21 2.2036 18.7964 0 16.0781 0Z" fill="#F4F2ED"/>
<path fill-rule="evenodd" clip-rule="evenodd" d="M6.80859 9.02344C7.30078 7.05469 8.53125 6.07031 10.5 6.07031C13.4531 6.07031 13.8223 8.28516 15.2988 8.6543C16.2832 8.9005 17.1445 8.53136 17.8828 7.54688C17.3906 9.51562 16.1602 10.5 14.1914 10.5C11.2383 10.5 10.8691 8.28516 9.39258 7.91602C8.4082 7.66992 7.54688 8.03906 6.80859 9.02344ZM3.11719 13.4531C3.60938 11.4844 4.83984 10.5 6.80859 10.5C9.76172 10.5 10.1309 12.7148 11.6074 13.084C12.5918 13.3302 13.4531 12.961 14.1914 11.9766C13.6992 13.9453 12.4688 14.9297 10.5 14.9297C7.54688 14.9297 7.17773 12.7148 5.70117 12.3457C4.7168 12.0995 3.85547 12.4686 3.11719 13.4531Z" fill="url(#paint0_linear_40_98)"/>
</g>
<defs>
<linearGradient id="paint0_linear_40_98" x1="7.0957" y1="6.07031" x2="13.4121" y2="15.2168" gradientUnits="userSpaceOnUse">
<stop stop-color="#32B1C1"/>
<stop offset="1" stop-color="#14C6B7"/>
</linearGradient>
<clipPath id="clip0_40_98">
<rect width="21" height="21" fill="white"/>
</clipPath>
</defs>
</svg>
