<svg width="21" height="21" viewBox="0 0 21 21" fill="none" xmlns="http://www.w3.org/2000/svg">
<path d="M5.90625 8.99067C6.51875 6.54067 8.05 5.31567 10.5 5.31567C14.175 5.31567 14.6344 8.07192 16.4719 8.5313C17.6969 8.83755 18.7688 8.37817 19.6875 7.15317C19.075 9.60317 17.5438 10.8282 15.0938 10.8282C11.4188 10.8282 10.9594 8.07192 9.12187 7.61255C7.89687 7.3063 6.825 7.76567 5.90625 8.99067ZM1.3125 14.5032C1.925 12.0532 3.45625 10.8282 5.90625 10.8282C9.58125 10.8282 10.0406 13.5844 11.8781 14.0438C13.1031 14.35 14.175 13.8907 15.0938 12.6657C14.4812 15.1157 12.95 16.3407 10.5 16.3407C6.825 16.3407 6.36563 13.5844 4.52813 13.125C3.30313 12.8188 2.23125 13.2782 1.3125 14.5032Z" fill="#44A8B3"/>
</svg>
