<svg width="21" height="21" viewBox="0 0 21 21" fill="none" xmlns="http://www.w3.org/2000/svg">
<path d="M19.6113 4.03332L10.9869 19.4552C10.9464 19.5277 10.8873 19.5882 10.8158 19.6304C10.7442 19.6726 10.6627 19.695 10.5797 19.6953C10.4966 19.6957 10.4149 19.6739 10.343 19.6323C10.2711 19.5907 10.2116 19.5307 10.1705 19.4585L1.37545 4.03463C1.33123 3.95725 1.31 3.86885 1.31425 3.77982C1.31851 3.69079 1.34807 3.60482 1.39946 3.532C1.45086 3.45918 1.52196 3.40252 1.60442 3.36869C1.68688 3.33486 1.77728 3.32524 1.86501 3.34098L10.4986 4.88448C10.5535 4.89456 10.6098 4.89456 10.6647 4.88448L19.1178 3.3436C19.2052 3.32763 19.2953 3.33684 19.3777 3.37014C19.4601 3.40345 19.5313 3.45948 19.583 3.53171C19.6347 3.60393 19.6648 3.68938 19.6699 3.77807C19.6749 3.86677 19.6546 3.95572 19.6113 4.03332Z" fill="url(#paint0_linear_40_148)"/>
<path d="M14.6107 1.31711L8.22931 2.56727C8.17838 2.57756 8.13226 2.60435 8.09809 2.6435C8.06392 2.68265 8.04361 2.73198 8.04031 2.78383L7.64788 9.41458C7.64571 9.45096 7.65206 9.48734 7.66642 9.52083C7.68078 9.55432 7.70275 9.58401 7.73059 9.60752C7.75844 9.63103 7.79138 9.64772 7.8268 9.65626C7.86223 9.66481 7.89916 9.66497 7.93466 9.65674L9.71113 9.24658C9.7494 9.23774 9.78928 9.23866 9.8271 9.24926C9.86492 9.25986 9.89947 9.27981 9.92757 9.30725C9.95567 9.3347 9.97642 9.36877 9.98791 9.40633C9.99939 9.44389 10.0013 9.48374 9.99331 9.52221L9.46569 12.1072C9.45755 12.147 9.45989 12.1882 9.47249 12.2268C9.48509 12.2654 9.50752 12.3001 9.53756 12.3274C9.56761 12.3548 9.60425 12.3738 9.64388 12.3827C9.68351 12.3916 9.72478 12.3901 9.76363 12.3782L10.8609 12.0448C10.8998 12.0329 10.9411 12.0314 10.9808 12.0403C11.0205 12.0492 11.0572 12.0683 11.0873 12.0957C11.1174 12.1232 11.1398 12.1579 11.1523 12.1967C11.1649 12.2354 11.1671 12.2767 11.1588 12.3165L10.3195 16.3767C10.267 16.6307 10.6049 16.7692 10.746 16.552L10.8399 16.4063L16.0407 6.02768C16.0602 5.98857 16.0684 5.94478 16.0643 5.90127C16.0603 5.85775 16.0441 5.81623 16.0177 5.78141C15.9913 5.7466 15.9556 5.71986 15.9148 5.70424C15.874 5.68861 15.8296 5.68471 15.7867 5.69299L13.9577 6.0454C13.9183 6.05293 13.8777 6.05024 13.8397 6.03758C13.8016 6.02491 13.7675 6.00271 13.7405 5.97308C13.7135 5.94345 13.6946 5.90739 13.6855 5.86834C13.6764 5.8293 13.6775 5.78858 13.6887 5.75008L14.8817 1.61177C14.893 1.57315 14.8941 1.53228 14.8849 1.4931C14.8758 1.45392 14.8567 1.41776 14.8296 1.38809C14.8024 1.35842 14.7681 1.33624 14.7298 1.3237C14.6916 1.31115 14.6508 1.30866 14.6113 1.31646" fill="url(#paint1_linear_40_148)"/>
<defs>
<linearGradient id="paint0_linear_40_148" x1="1.16054" y1="2.78964" x2="11.8936" y2="17.366" gradientUnits="userSpaceOnUse">
<stop stop-color="#41D1FF"/>
<stop offset="1" stop-color="#BD34FE"/>
</linearGradient>
<linearGradient id="paint1_linear_40_148" x1="10.0025" y1="1.65625" x2="11.944" y2="14.9752" gradientUnits="userSpaceOnUse">
<stop stop-color="#FFEA83"/>
<stop offset="0.083" stop-color="#FFDD35"/>
<stop offset="1" stop-color="#FFA800"/>
</linearGradient>
</defs>
</svg>
