<svg width="21" height="22" viewBox="0 0 21 22" fill="none" xmlns="http://www.w3.org/2000/svg">
<path fill-rule="evenodd" clip-rule="evenodd" d="M12.132 1.8125C12.006 1.81448 11.881 1.83663 11.7619 1.87812C12.8218 2.57506 11.5716 3.58438 12.1557 4.4375C12.1154 4.15055 12.1611 3.8581 12.2869 3.59707C12.4127 3.33603 12.6129 3.1181 12.8625 2.97078C13.0495 2.81525 13.1696 2.75947 13.1295 2.50222C13.0646 2.08091 12.5028 1.8125 12.132 1.8125ZM13.6414 2.08419C13.4951 2.82116 13.3133 2.84806 12.7732 3.32253C12.5625 3.48853 12.4137 3.72065 12.351 3.98149C12.2882 4.24233 12.3151 4.51669 12.4274 4.76038C10.1961 3.89412 7.33617 3.37044 5.23945 4.86931C4.48542 5.40809 4.02539 6.18181 3.09548 6.49747C2.49436 6.70353 1.90373 6.6425 1.52705 7.23837C1.3889 7.41027 1.31669 7.62586 1.32343 7.84629C1.33017 8.06671 1.41541 8.27749 1.5638 8.44063C1.67602 8.55547 1.89192 8.62897 1.98117 8.74578C2.03302 8.81141 2.0317 8.87703 2.08092 8.96431C2.1679 9.16772 2.29361 9.35227 2.45105 9.50769C2.54752 9.58709 2.87892 9.66453 2.93536 9.74919C3.00623 9.85484 2.82248 10.2742 2.9767 10.3398C3.08039 10.3877 3.38423 9.85156 3.41377 9.80431C3.35339 10.2263 3.27398 10.9751 3.74845 10.3516C3.97355 10.0557 3.98733 9.95788 4.36598 9.89225C4.60824 9.84974 4.85319 9.8243 5.09902 9.81612C6.50328 9.76668 7.87299 10.2579 8.92574 11.1886C9.97849 12.1192 10.634 13.4183 10.7572 14.8181C10.6863 14.4899 10.2578 13.9649 9.8588 14.0896C9.68883 14.1421 9.62583 14.4355 9.51427 14.6054C9.37299 14.8208 9.19921 15.0129 8.99911 15.1751C9.03288 14.8569 9.01693 14.5354 8.95186 14.2222C8.83242 14.7131 8.59289 15.5275 7.9898 15.3956C7.78883 15.365 7.60052 15.2786 7.4464 15.146C7.29228 15.0135 7.17857 14.8403 7.1183 14.6461C7.0402 14.1474 7.56717 13.5627 6.71995 13.5213C5.02027 13.438 5.41336 15.9376 6.41677 16.5893C6.18622 16.6151 5.96132 16.6778 5.75067 16.775C6.38806 17.1452 7.10625 17.354 7.84275 17.3832C8.57925 17.4125 9.31175 17.2614 9.97651 16.943C10.6413 16.6246 11.2182 16.1485 11.657 15.5563C12.0958 14.9641 12.3832 14.2736 12.4943 13.5449C12.6394 14.2123 12.6361 14.9035 12.4845 15.5695C12.403 15.9233 12.281 16.2666 12.1209 16.5926C11.9038 17.0327 11.6155 17.434 11.2678 17.7804C11.0617 17.9845 10.6837 18.1899 10.5538 18.3979C11.3491 18.2925 12.1264 18.0788 12.8638 17.7627C12.1003 18.8082 11.0837 19.6426 9.90933 20.1875C11.1685 20.0984 12.3857 19.6972 13.4512 19.0203C14.5166 18.3433 15.3969 17.4118 16.0125 16.3097C15.8154 17.4117 15.3797 18.4572 14.736 19.3731C15.6029 18.7928 16.3405 18.0395 16.9023 17.1605C17.4642 16.2816 17.8382 15.2959 18.0009 14.2655C18.1627 15.0198 18.209 15.7942 18.138 16.5624C18.8501 15.5729 19.3311 14.4363 19.5456 13.2362C19.7601 12.0362 19.7028 10.8033 19.3777 9.62844C19.1286 8.71522 18.7557 7.84041 18.2693 7.02838C18.0812 6.71216 17.8754 6.40674 17.6531 6.11356C17.5658 6.00003 17.0992 5.58463 17.0992 5.45731C17.0953 5.47 17.092 5.47 17.0894 5.45731C17.0894 7.58881 14.7925 8.95709 12.869 8.38616C13.6004 8.32943 14.2917 8.02925 14.8325 7.53356C15.3732 7.03787 15.7323 6.37526 15.8523 5.65156C15.9586 4.89232 15.7957 4.11982 15.3918 3.46818C14.9879 2.81653 14.3686 2.32687 13.6414 2.08419Z" fill="#EA2845"/>
</svg>
